<svg xmlns="http://www.w3.org/2000/svg" viewBox="0 0 720 480" font-family="'Segoe UI', 'Helvetica Neue', Arial, sans-serif">
  <defs>
    <linearGradient id="bgG4" x1="0" y1="0" x2="0" y2="1">
      <stop offset="0%" stop-color="#0f172a"/>
      <stop offset="100%" stop-color="#1e293b"/>
    </linearGradient>
    <marker id="arrow" viewBox="0 0 10 10" refX="9" refY="5" markerWidth="6" markerHeight="6" orient="auto-start-reverse">
      <path d="M 0 0 L 10 5 L 0 10 z" fill="#64748b"/>
    </marker>
    <marker id="arrowBlue" viewBox="0 0 10 10" refX="9" refY="5" markerWidth="6" markerHeight="6" orient="auto-start-reverse">
      <path d="M 0 0 L 10 5 L 0 10 z" fill="#3b82f6"/>
    </marker>
    <marker id="arrowOrange" viewBox="0 0 10 10" refX="9" refY="5" markerWidth="6" markerHeight="6" orient="auto-start-reverse">
      <path d="M 0 0 L 10 5 L 0 10 z" fill="#f97316"/>
    </marker>
    <marker id="arrowGreen" viewBox="0 0 10 10" refX="9" refY="5" markerWidth="6" markerHeight="6" orient="auto-start-reverse">
      <path d="M 0 0 L 10 5 L 0 10 z" fill="#22c55e"/>
    </marker>
  </defs>

  <rect width="720" height="480" rx="12" fill="url(#bgG4)"/>

  <!-- Title -->
  <text x="360" y="36" text-anchor="middle" fill="#e2e8f0" font-size="17" font-weight="600">Active Oversight Architecture — Forced Cognition Model</text>

  <!-- Main pipeline: AI System -->
  <rect x="40" y="80" width="130" height="55" rx="8" fill="#1e293b" stroke="#3b82f6" stroke-width="1.5"/>
  <text x="105" y="103" text-anchor="middle" fill="#93c5fd" font-size="11" font-weight="600">AI System</text>
  <text x="105" y="118" text-anchor="middle" fill="#64748b" font-size="9">Generates output</text>

  <!-- Arrow to LLM Judge -->
  <line x1="170" y1="107" x2="210" y2="107" stroke="#64748b" stroke-width="1.5" marker-end="url(#arrow)"/>

  <!-- LLM-as-Judge -->
  <rect x="215" y="80" width="130" height="55" rx="8" fill="#1e293b" stroke="#8b5cf6" stroke-width="1.5"/>
  <text x="280" y="103" text-anchor="middle" fill="#c4b5fd" font-size="11" font-weight="600">LLM-as-Judge</text>
  <text x="280" y="118" text-anchor="middle" fill="#64748b" font-size="9">Scores confidence</text>

  <!-- Arrow to Router -->
  <line x1="345" y1="107" x2="385" y2="107" stroke="#64748b" stroke-width="1.5" marker-end="url(#arrow)"/>

  <!-- Confidence Router -->
  <polygon points="440,72 495,107 440,142 385,107" fill="#1e293b" stroke="#fbbf24" stroke-width="1.5"/>
  <text x="440" y="104" text-anchor="middle" fill="#fde68a" font-size="10" font-weight="600">Route</text>
  <text x="440" y="116" text-anchor="middle" fill="#fbbf24" font-size="8">by score</text>

  <!-- High confidence path (down-right to auto-approve) -->
  <line x1="468" y1="125" x2="545" y2="175" stroke="#22c55e" stroke-width="1.5" marker-end="url(#arrowGreen)"/>
  <text x="525" y="148" fill="#86efac" font-size="9" font-weight="500">High</text>

  <rect x="545" y="160" width="140" height="45" rx="8" fill="#1e293b" stroke="#22c55e" stroke-width="1.5"/>
  <text x="615" y="180" text-anchor="middle" fill="#86efac" font-size="10" font-weight="600">Auto-proceed</text>
  <text x="615" y="193" text-anchor="middle" fill="#64748b" font-size="9">Log for audit</text>

  <!-- Medium confidence path (right to time-bounded) -->
  <line x1="495" y1="107" x2="545" y2="107" stroke="#f59e0b" stroke-width="1.5" marker-end="url(#arrowOrange)"/>
  <text x="520" y="99" fill="#fcd34d" font-size="9" font-weight="500">Med</text>

  <rect x="545" y="82" width="140" height="50" rx="8" fill="#1e293b" stroke="#f59e0b" stroke-width="1.5"/>
  <text x="615" y="100" text-anchor="middle" fill="#fcd34d" font-size="10" font-weight="600">Time-bounded</text>
  <text x="615" y="113" text-anchor="middle" fill="#64748b" font-size="9">Safe default + async</text>
  <text x="615" y="124" text-anchor="middle" fill="#64748b" font-size="9">human review</text>

  <!-- Low confidence path (up-right to human review) -->
  <line x1="468" y1="89" x2="545" y2="42" stroke="#ef4444" stroke-width="1.5" marker-end="url(#arrow)"/>
  <text x="525" y="53" fill="#fca5a5" font-size="9" font-weight="500">Low</text>

  <rect x="545" y="15" width="140" height="50" rx="8" fill="#1e293b" stroke="#ef4444" stroke-width="1.5"/>
  <text x="615" y="34" text-anchor="middle" fill="#fca5a5" font-size="10" font-weight="600">BLOCK + Escalate</text>
  <text x="615" y="47" text-anchor="middle" fill="#64748b" font-size="9">Human must decide</text>
  <text x="615" y="58" text-anchor="middle" fill="#64748b" font-size="9">before proceeding</text>

  <!-- Divider -->
  <line x1="30" y1="230" x2="690" y2="230" stroke="#334155" stroke-width="1" stroke-dasharray="4,4"/>
  <text x="360" y="250" text-anchor="middle" fill="#94a3b8" font-size="12" font-weight="600">Forced Cognition Mechanisms</text>

  <!-- Mechanism 1: Synthetic Probes -->
  <rect x="30" y="270" width="155" height="90" rx="8" fill="#1e293b" stroke="#8b5cf6" stroke-width="1"/>
  <text x="107" y="292" text-anchor="middle" fill="#c4b5fd" font-size="10" font-weight="600">Synthetic Probes</text>
  <line x1="45" y1="300" x2="170" y2="300" stroke="#334155" stroke-width="0.5"/>
  <text x="107" y="316" text-anchor="middle" fill="#94a3b8" font-size="9">Known-bad inputs injected</text>
  <text x="107" y="330" text-anchor="middle" fill="#94a3b8" font-size="9">into review queue</text>
  <text x="107" y="344" text-anchor="middle" fill="#94a3b8" font-size="9">unmarked as tests</text>

  <!-- Mechanism 2: Forced Reasoning -->
  <rect x="200" y="270" width="155" height="90" rx="8" fill="#1e293b" stroke="#3b82f6" stroke-width="1"/>
  <text x="277" y="292" text-anchor="middle" fill="#93c5fd" font-size="10" font-weight="600">Forced Reasoning</text>
  <line x1="215" y1="300" x2="340" y2="300" stroke="#334155" stroke-width="0.5"/>
  <text x="277" y="316" text-anchor="middle" fill="#94a3b8" font-size="9">Reviewer must classify</text>
  <text x="277" y="330" text-anchor="middle" fill="#94a3b8" font-size="9">risk type + state expected</text>
  <text x="277" y="344" text-anchor="middle" fill="#94a3b8" font-size="9">output before seeing it</text>

  <!-- Mechanism 3: Routine Engagement -->
  <rect x="370" y="270" width="155" height="90" rx="8" fill="#1e293b" stroke="#f59e0b" stroke-width="1"/>
  <text x="447" y="292" text-anchor="middle" fill="#fcd34d" font-size="10" font-weight="600">Routine Engagement</text>
  <line x1="385" y1="300" x2="510" y2="300" stroke="#334155" stroke-width="0.5"/>
  <text x="447" y="316" text-anchor="middle" fill="#94a3b8" font-size="9">% of normal decisions</text>
  <text x="447" y="330" text-anchor="middle" fill="#94a3b8" font-size="9">routed through human</text>
  <text x="447" y="344" text-anchor="middle" fill="#94a3b8" font-size="9">to maintain baseline skill</text>

  <!-- Mechanism 4: Outcome Feedback -->
  <rect x="540" y="270" width="155" height="90" rx="8" fill="#1e293b" stroke="#22c55e" stroke-width="1"/>
  <text x="617" y="292" text-anchor="middle" fill="#86efac" font-size="10" font-weight="600">Outcome Feedback</text>
  <line x1="555" y1="300" x2="680" y2="300" stroke="#334155" stroke-width="0.5"/>
  <text x="617" y="316" text-anchor="middle" fill="#94a3b8" font-size="9">Downstream consequences</text>
  <text x="617" y="330" text-anchor="middle" fill="#94a3b8" font-size="9">of each decision visible</text>
  <text x="617" y="344" text-anchor="middle" fill="#94a3b8" font-size="9">to the reviewer</text>

  <!-- Measurement layer -->
  <rect x="30" y="385" width="660" height="80" rx="8" fill="#1e293b" stroke="#475569" stroke-width="1"/>
  <text x="360" y="406" text-anchor="middle" fill="#e2e8f0" font-size="11" font-weight="600">Continuous Measurement Layer</text>
  <line x1="45" y1="415" x2="675" y2="415" stroke="#334155" stroke-width="0.5"/>

  <text x="120" y="435" text-anchor="middle" fill="#94a3b8" font-size="9">Response latency</text>
  <text x="120" y="450" text-anchor="middle" fill="#94a3b8" font-size="9">distribution</text>

  <text x="270" y="435" text-anchor="middle" fill="#94a3b8" font-size="9">Probe detection</text>
  <text x="270" y="450" text-anchor="middle" fill="#94a3b8" font-size="9">rate per reviewer</text>

  <text x="420" y="435" text-anchor="middle" fill="#94a3b8" font-size="9">Justification entropy</text>
  <text x="420" y="450" text-anchor="middle" fill="#94a3b8" font-size="9">(diversity of reasoning)</text>

  <text x="580" y="435" text-anchor="middle" fill="#94a3b8" font-size="9">Inter-reviewer</text>
  <text x="580" y="450" text-anchor="middle" fill="#94a3b8" font-size="9">agreement rate</text>

  <!-- Vertical separators in measurement layer -->
  <line x1="195" y1="418" x2="195" y2="460" stroke="#334155" stroke-width="0.5"/>
  <line x1="345" y1="418" x2="345" y2="460" stroke="#334155" stroke-width="0.5"/>
  <line x1="500" y1="418" x2="500" y2="460" stroke="#334155" stroke-width="0.5"/>
</svg>
