<svg xmlns="http://www.w3.org/2000/svg" viewBox="0 0 1500 1020" font-family="'Gill Sans', 'Gill Sans MT', Helvetica, Arial, sans-serif">
  <title>Enterprise AI Security Framework — Tube Map</title>
  <defs>
    <!-- Line colors -->
    <!-- Runtime (Red/Central): #E32017 -->
    <!-- Insights (Blue/Piccadilly): #003688 -->
    <!-- Emerging (Green/District): #00782A -->
    <!-- Agentic (Orange/Overground): #EE7C0E -->
    <!-- Pipeline (Purple/Metropolitan): #9B0056 -->
    <!-- Ops (Yellow/Circle): #FFD300, stroke #B36305 -->
    <!-- Regulatory (Silver/Jubilee): #A0A5A9 -->
    <!-- Getting Started (Teal/DLR): #00A4A7 -->

    <filter id="shadow" x="-2%" y="-2%" width="104%" height="104%">
      <feDropShadow dx="1" dy="1" stdDeviation="1.5" flood-opacity="0.08"/>
    </filter>

    <!-- Station marker -->
    <circle id="stn" r="5.5" fill="white" stroke-width="2.5"/>
    <!-- Interchange marker -->
    <circle id="ix" r="8" fill="white" stroke="#000" stroke-width="2.5"/>
    <!-- NEW badge -->
    <g id="new-badge">
      <rect x="-14" y="-8" width="28" height="14" rx="3" fill="#E32017"/>
      <text x="0" y="3" text-anchor="middle" font-size="8" font-weight="bold" fill="white" font-family="'Gill Sans', Helvetica, sans-serif">NEW</text>
    </g>
  </defs>

  <!-- Background -->
  <rect width="1500" height="1020" fill="#F4F1EA"/>

  <!-- ============================================================ -->
  <!-- TITLE -->
  <!-- ============================================================ -->
  <g transform="translate(60,52)">
    <!-- TfL-style roundel -->
    <circle cx="0" cy="0" r="22" fill="none" stroke="#E32017" stroke-width="6"/>
    <rect x="-24" y="-7" width="48" height="14" fill="#003688" rx="1"/>
    <text x="0" y="4" text-anchor="middle" font-size="10" fill="white" font-weight="bold">AI</text>
    <!-- Title text -->
    <text x="36" y="-4" font-size="22" font-weight="bold" fill="#003688">Enterprise AI Security Framework</text>
    <text x="36" y="14" font-size="11" fill="#555">Guardrails prevent. Judge detects. Humans decide.</text>
  </g>

  <!-- ============================================================ -->
  <!-- DATA FLOW "RIVER" (like the Thames) -->
  <!-- ============================================================ -->
  <path d="M0,545 Q120,530 240,540 Q360,550 500,535 Q640,520 780,535 Q920,550 1060,535 Q1200,520 1340,540 Q1420,548 1500,545 L1500,570 Q1420,573 1340,565 Q1200,545 1060,560 Q920,575 780,560 Q640,545 500,560 Q360,575 240,565 Q120,555 0,570 Z" fill="#DAEAF6" opacity="0.5"/>
  <text x="70" y="562" font-size="9" fill="#6BA7D2" font-style="italic" letter-spacing="3">DATA   FLOW</text>

  <!-- ============================================================ -->
  <!-- LINE 8: GETTING STARTED (Teal #00A4A7) -->
  <!-- ============================================================ -->
  <g id="line-getting-started">
    <!-- Quick Start → Impl Guide horizontal, then branch down to Risk Tiers on Red -->
    <polyline points="170,130 370,130" fill="none" stroke="#00A4A7" stroke-width="8" stroke-linecap="round" stroke-linejoin="round"/>
    <!-- Branch 1: down to Risk Tiers (280,440) via 45° -->
    <polyline points="280,130 280,350 280,440" fill="none" stroke="#00A4A7" stroke-width="8" stroke-linecap="round" stroke-linejoin="round"/>
    <!-- Branch 2: right to Impl Guide, then down to Guardrails (490,440) -->
    <polyline points="370,130 490,130 490,350 490,440" fill="none" stroke="#00A4A7" stroke-width="8" stroke-linecap="round" stroke-linejoin="round"/>
    
    <!-- Stations -->
    <use href="#stn" x="170" y="130" stroke="#00A4A7"/>
    <text x="170" y="118" text-anchor="middle" font-size="10" fill="#333">Quick Start</text>
    
    <use href="#stn" x="370" y="130" stroke="#00A4A7"/>
    <text x="370" y="118" text-anchor="middle" font-size="10" fill="#333">Implementation</text>
    <text x="370" y="107" text-anchor="middle" font-size="10" fill="#333">Guide</text>
  </g>

  <!-- ============================================================ -->
  <!-- LINE 1: INSIGHTS (Blue #003688) — "Why This Pattern" -->
  <!-- ============================================================ -->
  <g id="line-insights">
    <polyline points="130,210 330,210 530,210 730,210 930,210 1130,210" 
              fill="none" stroke="#003688" stroke-width="8" stroke-linecap="round" stroke-linejoin="round"/>
    
    <!-- Stations -->
    <use href="#stn" x="130" y="210" stroke="#003688"/>
    <text x="130" y="195" text-anchor="middle" font-size="10" font-weight="bold" fill="#003688">The First Control</text>

    <use href="#stn" x="330" y="210" stroke="#003688"/>
    <text x="330" y="195" text-anchor="middle" font-size="10" fill="#333">Why Guardrails</text>
    <text x="330" y="184" text-anchor="middle" font-size="10" fill="#333">Aren't Enough</text>
    
    <use href="#stn" x="530" y="210" stroke="#003688"/>
    <text x="530" y="195" text-anchor="middle" font-size="10" fill="#333">Judge Detects.</text>
    <text x="530" y="184" text-anchor="middle" font-size="10" fill="#333">It Doesn't Decide.</text>

    <use href="#stn" x="730" y="210" stroke="#003688"/>
    <text x="730" y="195" text-anchor="middle" font-size="10" fill="#333">Infrastructure</text>
    <text x="730" y="184" text-anchor="middle" font-size="10" fill="#333">Beats Instructions</text>

    <use href="#stn" x="930" y="210" stroke="#003688"/>
    <text x="930" y="195" text-anchor="middle" font-size="10" fill="#333">Risk Tier Is</text>
    <text x="930" y="184" text-anchor="middle" font-size="10" fill="#333">Use Case</text>

    <use href="#stn" x="1130" y="210" stroke="#003688"/>
    <text x="1130" y="195" text-anchor="middle" font-size="10" fill="#333">Humans Remain</text>
    <text x="1130" y="184" text-anchor="middle" font-size="10" fill="#333">Accountable</text>
  </g>

  <!-- ============================================================ -->
  <!-- LINE 2: EMERGING CHALLENGES (Green #00782A) -->
  <!-- ============================================================ -->
  <g id="line-emerging">
    <polyline points="330,310 470,310 620,310 770,310 920,310 1070,310 1220,310" 
              fill="none" stroke="#00782A" stroke-width="8" stroke-linecap="round" stroke-linejoin="round"/>

    <!-- Stations -->
    <use href="#stn" x="330" y="310" stroke="#00782A"/>
    <text x="295" y="300" font-size="10" fill="#333">Verification</text>
    <text x="295" y="289" font-size="10" fill="#333">Gap</text>

    <use href="#stn" x="470" y="310" stroke="#00782A"/>
    <text x="470" y="335" text-anchor="middle" font-size="10" fill="#333">Behavioral</text>
    <text x="470" y="346" text-anchor="middle" font-size="10" fill="#333">Anomaly Detection</text>

    <use href="#stn" x="620" y="310" stroke="#00782A"/>
    <text x="620" y="300" text-anchor="middle" font-size="10" fill="#333">Multimodal Breaks</text>
    <text x="620" y="289" text-anchor="middle" font-size="10" fill="#333">Guardrails</text>

    <use href="#stn" x="770" y="310" stroke="#00782A"/>
    <text x="770" y="335" text-anchor="middle" font-size="10" fill="#333">When AI Thinks</text>
    <text x="770" y="346" text-anchor="middle" font-size="10" fill="#333">Before It Answers</text>

    <use href="#stn" x="920" y="310" stroke="#00782A"/>
    <text x="920" y="300" text-anchor="middle" font-size="10" fill="#333">When Agents</text>
    <text x="920" y="289" text-anchor="middle" font-size="10" fill="#333">Talk to Agents</text>

    <use href="#stn" x="1070" y="310" stroke="#00782A"/>
    <text x="1070" y="335" text-anchor="middle" font-size="10" fill="#333">The Memory</text>
    <text x="1070" y="346" text-anchor="middle" font-size="10" fill="#333">Problem</text>

    <use href="#stn" x="1220" y="310" stroke="#00782A"/>
    <text x="1220" y="300" text-anchor="middle" font-size="10" fill="#333">Can't Validate</text>
    <text x="1220" y="289" text-anchor="middle" font-size="10" fill="#333">What Hasn't Finished</text>
  </g>

  <!-- ============================================================ -->
  <!-- LINE 3: RUNTIME CONTROLS (Red #E32017) — THE CENTRAL LINE -->
  <!-- ============================================================ -->
  <g id="line-runtime">
    <!-- Main thick horizontal -->
    <polyline points="120,440 280,440 490,440 700,440 910,440 1120,440 1330,440" 
              fill="none" stroke="#E32017" stroke-width="10" stroke-linecap="round" stroke-linejoin="round"/>

    <!-- Interchange stations (larger) -->
    <use href="#ix" x="280" y="440"/>
    <text x="280" y="468" text-anchor="middle" font-size="12" font-weight="bold" fill="#E32017">Risk Tiers</text>
    
    <use href="#ix" x="490" y="440"/>
    <text x="490" y="468" text-anchor="middle" font-size="12" font-weight="bold" fill="#E32017">Guardrails</text>
    
    <use href="#ix" x="700" y="440"/>
    <text x="700" y="468" text-anchor="middle" font-size="12" font-weight="bold" fill="#E32017">Judge</text>
    
    <use href="#ix" x="910" y="440"/>
    <text x="910" y="468" text-anchor="middle" font-size="12" font-weight="bold" fill="#E32017">Judge Assurance</text>
    <use href="#new-badge" x="910" y="488"/>

    <use href="#ix" x="1120" y="440"/>
    <text x="1120" y="468" text-anchor="middle" font-size="12" font-weight="bold" fill="#E32017">Human Oversight</text>

    <use href="#ix" x="1330" y="440"/>
    <text x="1330" y="468" text-anchor="middle" font-size="12" font-weight="bold" fill="#E32017">Checklist</text>

    <!-- Entry arrow -->
    <line x1="80" y1="440" x2="120" y2="440" stroke="#E32017" stroke-width="10" stroke-linecap="round"/>
    <polygon points="115,430 130,440 115,450" fill="#E32017"/>
    <text x="60" y="444" text-anchor="end" font-size="9" fill="#E32017" font-weight="bold">INPUT</text>
  </g>

  <!-- ============================================================ -->
  <!-- VERTICAL CONNECTORS: Insights ↔ Runtime (dashed, showing relationships) -->
  <!-- ============================================================ -->
  <g id="connectors" stroke-dasharray="4,4" stroke-width="1.5" opacity="0.35">
    <!-- First Control → entry -->
    <line x1="130" y1="218" x2="130" y2="432" stroke="#003688"/>
    <!-- Why Guardrails → Guardrails -->
    <line x1="330" y1="218" x2="490" y2="432" stroke="#003688"/>
    <!-- Judge Detects → Judge -->
    <line x1="530" y1="218" x2="700" y2="432" stroke="#003688"/>
    <!-- Risk Tier Is Use Case → Risk Tiers -->
    <line x1="930" y1="218" x2="910" y2="432" stroke="#003688"/>
    <!-- Humans Accountable → Human Oversight -->
    <line x1="1130" y1="218" x2="1120" y2="432" stroke="#003688"/>
    <!-- Verification Gap → Judge Assurance -->
    <line x1="330" y1="318" x2="910" y2="432" stroke="#00782A"/>
    <!-- Multimodal → links below -->
    <!-- When Agents Talk → Multi-Agent Controls -->
    <line x1="920" y1="318" x2="920" y2="592" stroke="#00782A"/>
    <!-- Memory Problem → Memory & Context -->
    <line x1="1070" y1="318" x2="870" y2="685" stroke="#00782A"/>
    <!-- Streaming → Streaming Controls -->
    <line x1="1220" y1="318" x2="1120" y2="592" stroke="#00782A"/>
  </g>

  <!-- ============================================================ -->
  <!-- LINE 4: AGENTIC (Orange #EE7C0E) -->
  <!-- Branches down from Judge on Red line -->
  <!-- ============================================================ -->
  <g id="line-agentic">
    <!-- Down from Judge, then right -->
    <polyline points="700,448 700,600 920,600 1120,600" 
              fill="none" stroke="#EE7C0E" stroke-width="8" stroke-linecap="round" stroke-linejoin="round"/>

    <use href="#stn" x="700" y="600" stroke="#EE7C0E"/>
    <text x="700" y="622" text-anchor="middle" font-size="10" font-weight="bold" fill="#EE7C0E">Agentic Controls</text>

    <use href="#stn" x="920" y="600" stroke="#EE7C0E"/>
    <text x="920" y="622" text-anchor="middle" font-size="10" font-weight="bold" fill="#EE7C0E">Multi-Agent Controls</text>
    <use href="#new-badge" x="920" y="638"/>

    <use href="#stn" x="1120" y="600" stroke="#EE7C0E"/>
    <text x="1120" y="622" text-anchor="middle" font-size="10" font-weight="bold" fill="#EE7C0E">NHI Lifecycle</text>
    <use href="#new-badge" x="1120" y="638"/>
  </g>

  <!-- ============================================================ -->
  <!-- LINE 5: PIPELINE (Purple #9B0056) -->
  <!-- Branches down from Guardrails area -->
  <!-- ============================================================ -->
  <g id="line-pipeline">
    <!-- Down from Guardrails, then right and down -->
    <polyline points="490,448 490,600 490,700 660,700 870,700" 
              fill="none" stroke="#9B0056" stroke-width="8" stroke-linecap="round" stroke-linejoin="round"/>

    <use href="#stn" x="490" y="600" stroke="#9B0056"/>
    <text x="490" y="590" text-anchor="middle" font-size="10" font-weight="bold" fill="#9B0056">RAG Security</text>
    <use href="#new-badge" x="550" y="600"/>

    <use href="#stn" x="660" y="700" stroke="#9B0056"/>
    <text x="660" y="722" text-anchor="middle" font-size="10" font-weight="bold" fill="#9B0056">Supply Chain</text>
    <use href="#new-badge" x="660" y="738"/>

    <use href="#stn" x="870" y="700" stroke="#9B0056"/>
    <text x="870" y="722" text-anchor="middle" font-size="10" font-weight="bold" fill="#9B0056">Memory &amp; Context</text>
    <use href="#new-badge" x="870" y="738"/>
  </g>

  <!-- ============================================================ -->
  <!-- LINE 5b: PIPELINE INSIGHTS (Purple, dashed — insight articles) -->
  <!-- ============================================================ -->
  <g id="line-pipeline-insights">
    <polyline points="310,600 490,600" 
              fill="none" stroke="#9B0056" stroke-width="4" stroke-dasharray="12,6" stroke-linecap="round"/>
    <polyline points="310,700 490,700" 
              fill="none" stroke="#9B0056" stroke-width="4" stroke-dasharray="12,6" stroke-linecap="round"/>

    <use href="#stn" x="310" y="600" stroke="#9B0056"/>
    <text x="310" y="590" text-anchor="middle" font-size="9" fill="#9B0056">RAG Is Your Biggest</text>
    <text x="310" y="579" text-anchor="middle" font-size="9" fill="#9B0056">Attack Surface</text>
    <use href="#new-badge" x="310" y="617"/>

    <use href="#stn" x="310" y="700" stroke="#9B0056"/>
    <text x="310" y="690" text-anchor="middle" font-size="9" fill="#9B0056">The Supply Chain</text>
    <text x="310" y="679" text-anchor="middle" font-size="9" fill="#9B0056">Problem</text>
    <use href="#new-badge" x="310" y="717"/>

    <!-- Connect vertically -->
    <line x1="310" y1="608" x2="310" y2="692" stroke="#9B0056" stroke-width="4" stroke-dasharray="12,6" stroke-linecap="round"/>
  </g>

  <!-- ============================================================ -->
  <!-- LINE 6: OPS (Yellow #FFD300, outlined in #B36305) -->
  <!-- ============================================================ -->
  <g id="line-ops">
    <polyline points="490,785 700,785 920,785 1120,785" 
              fill="none" stroke="#FFD300" stroke-width="10" stroke-linecap="round" stroke-linejoin="round"/>
    <polyline points="490,785 700,785 920,785 1120,785" 
              fill="none" stroke="#B36305" stroke-width="10" stroke-linecap="round" stroke-linejoin="round" opacity="0.25"/>

    <use href="#stn" x="490" y="785" stroke="#B36305"/>
    <text x="490" y="810" text-anchor="middle" font-size="10" font-weight="bold" fill="#B36305">Metrics</text>

    <use href="#stn" x="700" y="785" stroke="#B36305"/>
    <text x="700" y="810" text-anchor="middle" font-size="10" font-weight="bold" fill="#B36305">SOC Integration</text>
    <use href="#new-badge" x="700" y="826"/>

    <use href="#stn" x="920" y="785" stroke="#B36305"/>
    <text x="920" y="810" text-anchor="middle" font-size="10" font-weight="bold" fill="#B36305">Anomaly Detection Ops</text>
    <use href="#new-badge" x="920" y="826"/>

    <use href="#stn" x="1120" y="785" stroke="#B36305"/>
    <text x="1120" y="810" text-anchor="middle" font-size="10" font-weight="bold" fill="#B36305">Cost &amp; Latency</text>
    <use href="#new-badge" x="1120" y="826"/>
  </g>

  <!-- ============================================================ -->
  <!-- LINE 7: REGULATORY (Silver #A0A5A9) -->
  <!-- ============================================================ -->
  <g id="line-regulatory">
    <polyline points="920,860 1120,860 1330,860 1330,448" 
              fill="none" stroke="#A0A5A9" stroke-width="8" stroke-linecap="round" stroke-linejoin="round"/>

    <use href="#stn" x="920" y="860" stroke="#A0A5A9"/>
    <text x="920" y="885" text-anchor="middle" font-size="10" fill="#555">ISO 42001 Mapping</text>

    <use href="#stn" x="1120" y="860" stroke="#A0A5A9"/>
    <text x="1120" y="885" text-anchor="middle" font-size="10" fill="#555">EU AI Act</text>

    <!-- Connects up to Checklist (already an interchange on Red) -->
  </g>

  <!-- ============================================================ -->
  <!-- LINE CONNECTORS: Ops ↔ Runtime -->
  <!-- ============================================================ -->
  <g id="ops-connectors">
    <!-- Metrics up to Guardrails area -->
    <line x1="490" y1="777" x2="490" y2="710" stroke="#B36305" stroke-width="3" stroke-dasharray="6,4" opacity="0.3"/>
    <!-- SOC up to Judge area -->
    <line x1="700" y1="777" x2="700" y2="710" stroke="#B36305" stroke-width="3" stroke-dasharray="6,4" opacity="0.3"/>
  </g>

  <!-- ============================================================ -->
  <!-- LINE 9: TESTING & ASSURANCE LOOP (Pink #CC0066) -->
  <!-- ============================================================ -->
  <g id="line-testing">
    <!-- Branch left-down from Risk Tiers -->
    <polyline points="280,448 280,500 140,560 140,660 140,760" 
              fill="none" stroke="#CC0066" stroke-width="8" stroke-linecap="round" stroke-linejoin="round"/>

    <!-- Stations -->
    <use href="#stn" x="140" y="560" stroke="#CC0066"/>
    <text x="140" y="548" text-anchor="middle" font-size="10" font-weight="bold" fill="#CC0066">Threat Modelling</text>

    <use href="#stn" x="140" y="660" stroke="#CC0066"/>
    <text x="140" y="648" text-anchor="middle" font-size="10" font-weight="bold" fill="#CC0066">Adversarial Testing</text>

    <use href="#stn" x="140" y="760" stroke="#CC0066"/>
    <text x="140" y="748" text-anchor="middle" font-size="10" font-weight="bold" fill="#CC0066">Red Team Exercises</text>

    <!-- FEEDBACK LOOP: dashed arrow from Red Team back up to Judge Assurance -->
    <path d="M148,760 L260,760 Q290,760 290,730 L290,500 Q290,470 350,460 L490,448" 
          fill="none" stroke="#CC0066" stroke-width="3" stroke-dasharray="10,5" stroke-linecap="round" opacity="0.5"/>
    <!-- Continue feedback to Judge Assurance -->
    <path d="M490,448 L700,448 L910,448" 
          fill="none" stroke="#CC0066" stroke-width="3" stroke-dasharray="10,5" stroke-linecap="round" opacity="0.5"/>

    <!-- Loop label on the feedback path -->
    <rect x="340" y="490" width="90" height="18" rx="3" fill="#CC0066" opacity="0.85"/>
    <text x="385" y="503" text-anchor="middle" font-size="8" font-weight="bold" fill="white">FEEDBACK LOOP</text>
    <!-- Arrow indicating direction (right, back into controls) -->
    <polygon points="435,499 445,503 435,507" fill="#CC0066" opacity="0.6"/>

    <!-- Testing Guidance — small branch off Adversarial Testing -->
    <line x1="140" y1="660" x2="60" y2="700" stroke="#CC0066" stroke-width="3" stroke-linecap="round"/>
    <circle cx="60" cy="700" r="4" fill="white" stroke="#CC0066" stroke-width="2"/>
    <text x="60" y="718" text-anchor="middle" font-size="8.5" fill="#CC0066">Testing</text>
    <text x="60" y="728" text-anchor="middle" font-size="8.5" fill="#CC0066">Guidance</text>
  </g>

  <!-- ============================================================ -->
  <!-- ADDITIONAL EXTENSIONS (small branches) -->
  <!-- ============================================================ -->
  <g id="extensions-misc">
    <!-- Bypass Prevention, Infrastructure — shown as small branches off Guardrails -->
    <line x1="490" y1="440" x2="400" y2="500" stroke="#888" stroke-width="3" stroke-linecap="round"/>
    <circle cx="400" cy="500" r="4" fill="white" stroke="#888" stroke-width="2"/>
    <text x="390" y="518" text-anchor="middle" font-size="8.5" fill="#666">Bypass Prevention</text>

    <line x1="490" y1="440" x2="580" y2="500" stroke="#888" stroke-width="3" stroke-linecap="round"/>
    <circle cx="580" cy="500" r="4" fill="white" stroke="#888" stroke-width="2"/>
    <text x="580" y="518" text-anchor="middle" font-size="8.5" fill="#666">Infrastructure</text>

    <!-- Current Solutions — branch off right side -->
    <line x1="1330" y1="440" x2="1420" y2="500" stroke="#888" stroke-width="3" stroke-linecap="round"/>
    <circle cx="1420" cy="500" r="4" fill="white" stroke="#888" stroke-width="2"/>
    <text x="1420" y="518" text-anchor="middle" font-size="8.5" fill="#666">Current Solutions</text>

    <!-- Playbooks/Templates — branch off Checklist -->
    <line x1="1330" y1="440" x2="1420" y2="380" stroke="#888" stroke-width="3" stroke-linecap="round"/>
    <circle cx="1420" cy="380" r="4" fill="white" stroke="#888" stroke-width="2"/>
    <text x="1420" y="368" text-anchor="middle" font-size="8.5" fill="#666">Playbooks &amp;</text>
    <text x="1420" y="357" text-anchor="middle" font-size="8.5" fill="#666">Templates</text>

    <!-- Emerging Controls — branch off Human Oversight -->
    <line x1="1120" y1="440" x2="1220" y2="500" stroke="#888" stroke-width="3" stroke-linecap="round"/>
    <circle cx="1220" cy="500" r="4" fill="white" stroke="#888" stroke-width="2"/>
    <text x="1220" y="518" text-anchor="middle" font-size="8.5" fill="#666">Emerging Controls</text>
  </g>

  <!-- ============================================================ -->
  <!-- CORE PATTERN HIGHLIGHT BOX -->
  <!-- ============================================================ -->
  <rect x="440" y="415" width="730" height="50" rx="6" fill="none" stroke="#E32017" stroke-width="1.5" stroke-dasharray="8,4" opacity="0.3"/>
  <text x="805" y="410" text-anchor="middle" font-size="8" fill="#E32017" font-weight="bold" letter-spacing="2" opacity="0.5">THE THREE-LAYER PATTERN</text>

  <!-- ============================================================ -->
  <!-- ZONE LABELS -->
  <!-- ============================================================ -->
  <text x="130" y="160" font-size="11" fill="#003688" font-weight="bold" opacity="0.4" letter-spacing="1">UNDERSTAND</text>
  <text x="700" y="160" font-size="11" fill="#E32017" font-weight="bold" opacity="0.4" letter-spacing="1" text-anchor="middle">IMPLEMENT</text>
  <text x="1300" y="160" font-size="11" fill="#B36305" font-weight="bold" opacity="0.4" letter-spacing="1" text-anchor="end">OPERATE</text>

  <!-- ============================================================ -->
  <!-- LEGEND -->
  <!-- ============================================================ -->
  <g transform="translate(60, 940)" filter="url(#shadow)">
    <rect x="-20" y="-20" width="1440" height="80" rx="6" fill="white" stroke="#ddd" stroke-width="0.5"/>
    
    <!-- Row 1 -->
    <line x1="0" y1="0" x2="50" y2="0" stroke="#E32017" stroke-width="6" stroke-linecap="round"/>
    <text x="58" y="4" font-size="10" fill="#333">Runtime Controls</text>

    <line x1="200" y1="0" x2="250" y2="0" stroke="#003688" stroke-width="6" stroke-linecap="round"/>
    <text x="258" y="4" font-size="10" fill="#333">Insights</text>

    <line x1="370" y1="0" x2="420" y2="0" stroke="#00782A" stroke-width="6" stroke-linecap="round"/>
    <text x="428" y="4" font-size="10" fill="#333">Emerging Challenges</text>

    <line x1="600" y1="0" x2="650" y2="0" stroke="#EE7C0E" stroke-width="6" stroke-linecap="round"/>
    <text x="658" y="4" font-size="10" fill="#333">Agentic Security</text>

    <line x1="810" y1="0" x2="860" y2="0" stroke="#9B0056" stroke-width="6" stroke-linecap="round"/>
    <text x="868" y="4" font-size="10" fill="#333">Pipeline &amp; Data</text>

    <line x1="1010" y1="0" x2="1060" y2="0" stroke="#FFD300" stroke-width="8" stroke-linecap="round"/>
    <text x="1068" y="4" font-size="10" fill="#333">Operations</text>

    <line x1="1180" y1="0" x2="1230" y2="0" stroke="#A0A5A9" stroke-width="6" stroke-linecap="round"/>
    <text x="1238" y="4" font-size="10" fill="#333">Regulatory</text>

    <!-- Row 2 -->
    <line x1="0" y1="30" x2="50" y2="30" stroke="#00A4A7" stroke-width="6" stroke-linecap="round"/>
    <text x="58" y="34" font-size="10" fill="#333">Getting Started</text>

    <line x1="200" y1="30" x2="250" y2="30" stroke="#CC0066" stroke-width="6" stroke-linecap="round"/>
    <text x="258" y="34" font-size="10" fill="#333">Testing &amp; Assurance</text>

    <line x1="440" y1="30" x2="490" y2="30" stroke="#9B0056" stroke-width="4" stroke-dasharray="12,6" stroke-linecap="round"/>
    <text x="498" y="34" font-size="10" fill="#333">Insight Article</text>

    <circle cx="620" cy="30" r="5.5" fill="white" stroke="#333" stroke-width="2.5"/>
    <text x="634" y="34" font-size="10" fill="#333">Station</text>

    <circle cx="720" cy="30" r="8" fill="white" stroke="#000" stroke-width="2.5"/>
    <text x="735" y="34" font-size="10" fill="#333">Interchange</text>

    <g transform="translate(870,30)">
      <use href="#new-badge"/>
    </g>
    <text x="898" y="34" font-size="10" fill="#333">New in this release</text>

    <line x1="1050" y1="30" x2="1100" y2="30" stroke="#CC0066" stroke-width="3" stroke-dasharray="10,5" stroke-linecap="round" opacity="0.5"/>
    <text x="1108" y="34" font-size="10" fill="#333">Feedback loop</text>
  </g>

  <!-- ============================================================ -->
  <!-- MULTIMODAL + REASONING + STREAMING CONTROLS (new core, shown on Orange/emerging branches) -->
  <!-- ============================================================ -->
  <g id="new-core-controls">
    <!-- Multimodal Controls — hangs off Emerging/Multimodal station, angled down to pipeline area -->
    <line x1="620" y1="318" x2="620" y2="390" stroke="#00782A" stroke-width="3" stroke-dasharray="6,4" opacity="0.4"/>
    <circle cx="620" cy="390" r="4" fill="white" stroke="#00782A" stroke-width="2"/>
    <text x="620" y="406" text-anchor="middle" font-size="8.5" fill="#00782A" font-weight="bold">Multimodal Controls</text>
    <g transform="translate(620,418)"><use href="#new-badge"/></g>

    <!-- Reasoning Model Controls — hangs off Reasoning station -->
    <line x1="770" y1="318" x2="770" y2="390" stroke="#00782A" stroke-width="3" stroke-dasharray="6,4" opacity="0.4"/>
    <circle cx="770" cy="390" r="4" fill="white" stroke="#00782A" stroke-width="2"/>
    <text x="770" y="406" text-anchor="middle" font-size="8.5" fill="#00782A" font-weight="bold">Reasoning Controls</text>
    <g transform="translate(770,418)"><use href="#new-badge"/></g>

    <!-- Streaming Controls — hangs off Streaming station -->
    <line x1="1220" y1="318" x2="1220" y2="390" stroke="#00782A" stroke-width="3" stroke-dasharray="6,4" opacity="0.4"/>
    <circle cx="1220" cy="390" r="4" fill="white" stroke="#00782A" stroke-width="2"/>
    <text x="1220" y="406" text-anchor="middle" font-size="8.5" fill="#00782A" font-weight="bold">Streaming Controls</text>
    <g transform="translate(1220,418)"><use href="#new-badge"/></g>
  </g>

  <!-- ============================================================ -->
  <!-- FOOTER -->
  <!-- ============================================================ -->
  <text x="1440" y="1005" text-anchor="end" font-size="8" fill="#999">v2.0 — February 2026 — github.com/JonathanCGill/enterprise-ai-security-framework</text>

</svg>
