<?xml version="1.0" encoding="UTF-8"?>
<svg xmlns="http://www.w3.org/2000/svg" viewBox="0 0 1200 850" width="1200" height="850">
  <style>
    .station-name { font: 9px Arial, sans-serif; fill: #1e293b; }
    .station-name-bold { font: bold 9px Arial, sans-serif; fill: #1e293b; }
    .interchange-name { font: bold 10px Arial, sans-serif; fill: #1e293b; }
    .line-label { font: bold 11px Arial, sans-serif; }
    .title { font: bold 24px Arial, sans-serif; fill: #1e293b; }
    .subtitle { font: 12px Arial, sans-serif; fill: #64748b; }
    .legend-text { font: 10px Arial, sans-serif; fill: #1e293b; }
  </style>
  
  <!-- Background -->
  <rect width="1200" height="850" fill="#f5f5f0"/>
  
  <!-- Title -->
  <text x="600" y="40" text-anchor="middle" class="title">AI SECURITY REFERENCE ARCHITECTURE</text>
  <text x="600" y="60" text-anchor="middle" class="subtitle">Enterprise AI Governance Map</text>
  
  <!-- ============================================ -->
  <!-- GOVERNANCE LINE (Red) - Horizontal top -->
  <!-- ============================================ -->
  <path d="M 80 120 H 400 L 450 170 V 280" stroke="#dc2626" stroke-width="8" fill="none" stroke-linecap="round" stroke-linejoin="round"/>
  
  <!-- Governance stations -->
  <circle cx="80" cy="120" r="6" fill="#dc2626"/>
  <circle cx="80" cy="120" r="3" fill="#f5f5f0"/>
  <text x="80" y="105" text-anchor="middle" class="station-name">AI Policy</text>
  
  <circle cx="160" cy="120" r="6" fill="#dc2626"/>
  <circle cx="160" cy="120" r="3" fill="#f5f5f0"/>
  <text x="160" y="105" text-anchor="middle" class="station-name">Governance</text>
  <text x="160" y="138" text-anchor="middle" class="station-name">Structure</text>
  
  <circle cx="240" cy="120" r="6" fill="#dc2626"/>
  <circle cx="240" cy="120" r="3" fill="#f5f5f0"/>
  <text x="240" y="105" text-anchor="middle" class="station-name">Accountability</text>
  
  <circle cx="320" cy="120" r="6" fill="#dc2626"/>
  <circle cx="320" cy="120" r="3" fill="#f5f5f0"/>
  <text x="320" y="105" text-anchor="middle" class="station-name">Committee</text>
  
  <circle cx="400" cy="120" r="6" fill="#dc2626"/>
  <circle cx="400" cy="120" r="3" fill="#f5f5f0"/>
  <text x="400" y="105" text-anchor="middle" class="station-name">Approval</text>
  <text x="400" y="138" text-anchor="middle" class="station-name">Workflow</text>
  
  <!-- ============================================ -->
  <!-- RISK LINE (Orange) - Runs through middle -->
  <!-- ============================================ -->
  <path d="M 80 200 H 280 L 330 250 H 550 L 600 300 H 900" stroke="#f59e0b" stroke-width="8" fill="none" stroke-linecap="round" stroke-linejoin="round"/>
  
  <!-- Risk stations -->
  <circle cx="80" cy="200" r="6" fill="#f59e0b"/>
  <circle cx="80" cy="200" r="3" fill="#f5f5f0"/>
  <text x="80" y="185" text-anchor="middle" class="station-name">Risk</text>
  <text x="80" y="218" text-anchor="middle" class="station-name">Classification</text>
  
  <circle cx="160" cy="200" r="6" fill="#f59e0b"/>
  <circle cx="160" cy="200" r="3" fill="#f5f5f0"/>
  <text x="160" y="185" text-anchor="middle" class="station-name">Risk</text>
  <text x="160" y="218" text-anchor="middle" class="station-name">Assessment</text>
  
  <circle cx="240" cy="200" r="6" fill="#f59e0b"/>
  <circle cx="240" cy="200" r="3" fill="#f5f5f0"/>
  <text x="240" y="185" text-anchor="middle" class="station-name">Risk</text>
  <text x="240" y="218" text-anchor="middle" class="station-name">Treatment</text>
  
  <!-- Risk Tiers - INTERCHANGE -->
  <circle cx="330" cy="250" r="12" fill="#ffffff" stroke="#1e293b" stroke-width="2"/>
  <circle cx="330" cy="250" r="6" fill="#1e293b"/>
  <text x="330" y="235" text-anchor="middle" class="interchange-name">RISK TIERS</text>
  
  <circle cx="450" cy="250" r="6" fill="#f59e0b"/>
  <circle cx="450" cy="250" r="3" fill="#f5f5f0"/>
  <text x="450" y="235" text-anchor="middle" class="station-name">Control</text>
  <text x="450" y="268" text-anchor="middle" class="station-name">Selection</text>
  
  <circle cx="550" cy="250" r="6" fill="#f59e0b"/>
  <circle cx="550" cy="250" r="3" fill="#f5f5f0"/>
  <text x="550" y="235" text-anchor="middle" class="station-name">Sampling</text>
  <text x="550" y="268" text-anchor="middle" class="station-name">Strategy</text>
  
  <!-- ============================================ -->
  <!-- DEVELOPMENT LINE (Blue) - Lower section -->
  <!-- ============================================ -->
  <path d="M 80 350 H 350 L 400 400 H 600 L 650 450 V 550" stroke="#3b82f6" stroke-width="8" fill="none" stroke-linecap="round" stroke-linejoin="round"/>
  
  <!-- Development stations -->
  <circle cx="80" cy="350" r="6" fill="#3b82f6"/>
  <circle cx="80" cy="350" r="3" fill="#f5f5f0"/>
  <text x="80" y="335" text-anchor="middle" class="station-name">Requirements</text>
  
  <circle cx="160" cy="350" r="6" fill="#3b82f6"/>
  <circle cx="160" cy="350" r="3" fill="#f5f5f0"/>
  <text x="160" y="335" text-anchor="middle" class="station-name">Design</text>
  
  <circle cx="240" cy="350" r="6" fill="#3b82f6"/>
  <circle cx="240" cy="350" r="3" fill="#f5f5f0"/>
  <text x="240" y="335" text-anchor="middle" class="station-name">Development</text>
  
  <circle cx="320" cy="350" r="6" fill="#3b82f6"/>
  <circle cx="320" cy="350" r="3" fill="#f5f5f0"/>
  <text x="320" y="335" text-anchor="middle" class="station-name">Testing</text>
  
  <!-- Model Validation - INTERCHANGE -->
  <circle cx="400" cy="400" r="12" fill="#ffffff" stroke="#1e293b" stroke-width="2"/>
  <circle cx="400" cy="400" r="6" fill="#1e293b"/>
  <text x="400" y="385" text-anchor="middle" class="interchange-name">VALIDATION</text>
  
  <circle cx="500" cy="400" r="6" fill="#3b82f6"/>
  <circle cx="500" cy="400" r="3" fill="#f5f5f0"/>
  <text x="500" y="385" text-anchor="middle" class="station-name">Security</text>
  <text x="500" y="418" text-anchor="middle" class="station-name">Review</text>
  
  <circle cx="600" cy="400" r="6" fill="#3b82f6"/>
  <circle cx="600" cy="400" r="3" fill="#f5f5f0"/>
  <text x="600" y="385" text-anchor="middle" class="station-name">Deployment</text>
  <text x="600" y="418" text-anchor="middle" class="station-name">Approval</text>
  
  <!-- ============================================ -->
  <!-- RUNTIME LINE (Green) - Main horizontal -->
  <!-- ============================================ -->
  <path d="M 200 500 H 500 L 550 550 H 850 L 900 500 H 1100" stroke="#22c55e" stroke-width="8" fill="none" stroke-linecap="round" stroke-linejoin="round"/>
  
  <!-- Runtime stations -->
  <circle cx="200" cy="500" r="6" fill="#22c55e"/>
  <circle cx="200" cy="500" r="3" fill="#f5f5f0"/>
  <text x="200" y="485" text-anchor="middle" class="station-name">Input</text>
  <text x="200" y="520" text-anchor="middle" class="station-name">Guardrails</text>
  
  <circle cx="300" cy="500" r="6" fill="#22c55e"/>
  <circle cx="300" cy="500" r="3" fill="#f5f5f0"/>
  <text x="300" y="485" text-anchor="middle" class="station-name">AI</text>
  <text x="300" y="520" text-anchor="middle" class="station-name">Processing</text>
  
  <circle cx="400" cy="500" r="6" fill="#22c55e"/>
  <circle cx="400" cy="500" r="3" fill="#f5f5f0"/>
  <text x="400" y="485" text-anchor="middle" class="station-name">Output</text>
  <text x="400" y="520" text-anchor="middle" class="station-name">Guardrails</text>
  
  <circle cx="500" cy="500" r="6" fill="#22c55e"/>
  <circle cx="500" cy="500" r="3" fill="#f5f5f0"/>
  <text x="500" y="485" text-anchor="middle" class="station-name">Logging</text>
  
  <!-- Judge - INTERCHANGE -->
  <circle cx="650" cy="550" r="12" fill="#ffffff" stroke="#1e293b" stroke-width="2"/>
  <circle cx="650" cy="550" r="6" fill="#1e293b"/>
  <text x="650" y="535" text-anchor="middle" class="interchange-name">JUDGE</text>
  
  <circle cx="750" cy="550" r="6" fill="#22c55e"/>
  <circle cx="750" cy="550" r="3" fill="#f5f5f0"/>
  <text x="750" y="535" text-anchor="middle" class="station-name">Evaluation</text>
  
  <circle cx="850" cy="550" r="6" fill="#22c55e"/>
  <circle cx="850" cy="550" r="3" fill="#f5f5f0"/>
  <text x="850" y="535" text-anchor="middle" class="station-name">Findings</text>
  
  <!-- HITL - INTERCHANGE -->
  <circle cx="950" cy="500" r="12" fill="#ffffff" stroke="#1e293b" stroke-width="2"/>
  <circle cx="950" cy="500" r="6" fill="#1e293b"/>
  <text x="950" y="485" text-anchor="middle" class="interchange-name">HITL</text>
  
  <circle cx="1050" cy="500" r="6" fill="#22c55e"/>
  <circle cx="1050" cy="500" r="3" fill="#f5f5f0"/>
  <text x="1050" y="485" text-anchor="middle" class="station-name">Human</text>
  <text x="1050" y="520" text-anchor="middle" class="station-name">Decision</text>
  
  <circle cx="1100" cy="500" r="6" fill="#22c55e"/>
  <circle cx="1100" cy="500" r="3" fill="#f5f5f0"/>
  <text x="1120" y="505" class="station-name">Action</text>
  
  <!-- ============================================ -->
  <!-- AGENTIC LINE (Purple) - Branch from Runtime -->
  <!-- ============================================ -->
  <path d="M 300 500 V 620 H 550 L 600 670 H 850 L 900 620 V 550" stroke="#8b5cf6" stroke-width="8" fill="none" stroke-linecap="round" stroke-linejoin="round"/>
  
  <!-- Agentic stations -->
  <circle cx="300" cy="570" r="6" fill="#8b5cf6"/>
  <circle cx="300" cy="570" r="3" fill="#f5f5f0"/>
  <text x="260" y="575" text-anchor="end" class="station-name">Plan Disclosure</text>
  
  <circle cx="300" cy="620" r="6" fill="#8b5cf6"/>
  <circle cx="300" cy="620" r="3" fill="#f5f5f0"/>
  <text x="260" y="625" text-anchor="end" class="station-name">Plan Guardrails</text>
  
  <!-- Plan Approval - INTERCHANGE -->
  <circle cx="400" cy="620" r="12" fill="#ffffff" stroke="#1e293b" stroke-width="2"/>
  <circle cx="400" cy="620" r="6" fill="#1e293b"/>
  <text x="400" y="650" text-anchor="middle" class="interchange-name">PLAN APPROVAL</text>
  
  <circle cx="500" cy="620" r="6" fill="#8b5cf6"/>
  <circle cx="500" cy="620" r="3" fill="#f5f5f0"/>
  <text x="500" y="605" text-anchor="middle" class="station-name">Action</text>
  <text x="500" y="640" text-anchor="middle" class="station-name">Guardrails</text>
  
  <!-- Circuit Breakers - INTERCHANGE -->
  <circle cx="600" cy="670" r="12" fill="#ffffff" stroke="#1e293b" stroke-width="2"/>
  <circle cx="600" cy="670" r="6" fill="#1e293b"/>
  <text x="600" y="700" text-anchor="middle" class="interchange-name">CIRCUIT BREAKERS</text>
  
  <circle cx="700" cy="670" r="6" fill="#8b5cf6"/>
  <circle cx="700" cy="670" r="3" fill="#f5f5f0"/>
  <text x="700" y="655" text-anchor="middle" class="station-name">Scope</text>
  <text x="700" y="690" text-anchor="middle" class="station-name">Enforcement</text>
  
  <circle cx="800" cy="670" r="6" fill="#8b5cf6"/>
  <circle cx="800" cy="670" r="3" fill="#f5f5f0"/>
  <text x="800" y="655" text-anchor="middle" class="station-name">Tool</text>
  <text x="800" y="690" text-anchor="middle" class="station-name">Controls</text>
  
  <circle cx="900" cy="620" r="6" fill="#8b5cf6"/>
  <circle cx="900" cy="620" r="3" fill="#f5f5f0"/>
  <text x="940" y="625" class="station-name">Trajectory</text>
  <text x="940" y="640" class="station-name">Logging</text>
  
  <!-- ============================================ -->
  <!-- COMPLIANCE LINE (Yellow/Circle) -->
  <!-- ============================================ -->
  <path d="M 700 120 H 1100 V 350 H 700 V 120" stroke="#eab308" stroke-width="8" fill="none" stroke-linecap="round" stroke-linejoin="round"/>
  
  <!-- Compliance stations -->
  <circle cx="700" cy="120" r="6" fill="#eab308"/>
  <circle cx="700" cy="120" r="3" fill="#f5f5f0"/>
  <text x="700" y="105" text-anchor="middle" class="station-name">ISO 27001</text>
  
  <circle cx="850" cy="120" r="6" fill="#eab308"/>
  <circle cx="850" cy="120" r="3" fill="#f5f5f0"/>
  <text x="850" y="105" text-anchor="middle" class="station-name">ISO 42001</text>
  
  <circle cx="1000" cy="120" r="6" fill="#eab308"/>
  <circle cx="1000" cy="120" r="3" fill="#f5f5f0"/>
  <text x="1000" y="105" text-anchor="middle" class="station-name">EU AI Act</text>
  
  <circle cx="1100" cy="120" r="6" fill="#eab308"/>
  <circle cx="1100" cy="120" r="3" fill="#f5f5f0"/>
  <text x="1100" y="105" text-anchor="middle" class="station-name">SR 11-7</text>
  
  <circle cx="1100" cy="235" r="6" fill="#eab308"/>
  <circle cx="1100" cy="235" r="3" fill="#f5f5f0"/>
  <text x="1085" y="240" text-anchor="end" class="station-name">NIST AI RMF</text>
  
  <circle cx="1100" cy="350" r="6" fill="#eab308"/>
  <circle cx="1100" cy="350" r="3" fill="#f5f5f0"/>
  <text x="1085" y="355" text-anchor="end" class="station-name">OWASP</text>
  
  <circle cx="900" cy="350" r="6" fill="#eab308"/>
  <circle cx="900" cy="350" r="3" fill="#f5f5f0"/>
  <text x="900" y="368" text-anchor="middle" class="station-name">MITRE ATLAS</text>
  
  <circle cx="700" cy="350" r="6" fill="#eab308"/>
  <circle cx="700" cy="350" r="3" fill="#f5f5f0"/>
  <text x="700" y="368" text-anchor="middle" class="station-name">Audit</text>
  
  <circle cx="700" cy="235" r="6" fill="#eab308"/>
  <circle cx="700" cy="235" r="3" fill="#f5f5f0"/>
  <text x="715" y="240" class="station-name">Documentation</text>
  
  <!-- ============================================ -->
  <!-- INCIDENT LINE (Pink/Magenta) - connects back -->
  <!-- ============================================ -->
  <path d="M 1050 500 L 1050 750 H 150 V 200" stroke="#ec4899" stroke-width="8" fill="none" stroke-linecap="round" stroke-linejoin="round"/>
  
  <!-- Incident stations -->
  <circle cx="1050" cy="600" r="6" fill="#ec4899"/>
  <circle cx="1050" cy="600" r="3" fill="#f5f5f0"/>
  <text x="1070" y="605" class="station-name">Detection</text>
  
  <circle cx="1050" cy="700" r="6" fill="#ec4899"/>
  <circle cx="1050" cy="700" r="3" fill="#f5f5f0"/>
  <text x="1070" y="705" class="station-name">Response</text>
  
  <!-- Incident Response - INTERCHANGE -->
  <circle cx="1050" cy="750" r="12" fill="#ffffff" stroke="#1e293b" stroke-width="2"/>
  <circle cx="1050" cy="750" r="6" fill="#1e293b"/>
  <text x="1050" y="775" text-anchor="middle" class="interchange-name">INCIDENT RESPONSE</text>
  
  <circle cx="800" cy="750" r="6" fill="#ec4899"/>
  <circle cx="800" cy="750" r="3" fill="#f5f5f0"/>
  <text x="800" y="768" text-anchor="middle" class="station-name">Investigation</text>
  
  <circle cx="550" cy="750" r="6" fill="#ec4899"/>
  <circle cx="550" cy="750" r="3" fill="#f5f5f0"/>
  <text x="550" y="768" text-anchor="middle" class="station-name">Remediation</text>
  
  <!-- Feedback Loop - INTERCHANGE -->
  <circle cx="300" cy="750" r="12" fill="#ffffff" stroke="#1e293b" stroke-width="2"/>
  <circle cx="300" cy="750" r="6" fill="#1e293b"/>
  <text x="300" y="775" text-anchor="middle" class="interchange-name">FEEDBACK LOOP</text>
  
  <circle cx="150" cy="750" r="6" fill="#ec4899"/>
  <circle cx="150" cy="750" r="3" fill="#f5f5f0"/>
  <text x="150" y="768" text-anchor="middle" class="station-name">Guardrail Update</text>
  
  <circle cx="150" cy="500" r="6" fill="#ec4899"/>
  <circle cx="150" cy="500" r="3" fill="#f5f5f0"/>
  <text x="130" y="505" text-anchor="end" class="station-name">Judge Calibration</text>
  
  <circle cx="150" cy="350" r="6" fill="#ec4899"/>
  <circle cx="150" cy="350" r="3" fill="#f5f5f0"/>
  <text x="130" y="355" text-anchor="end" class="station-name">Policy Update</text>
  
  <!-- ============================================ -->
  <!-- LEGEND -->
  <!-- ============================================ -->
  <rect x="30" y="720" width="220" height="115" rx="6" fill="#ffffff" stroke="#e2e8f0" stroke-width="1"/>
  
  <text x="140" y="740" text-anchor="middle" font-size="11" font-weight="bold" fill="#1e293b">LINES</text>
  
  <line x1="45" y1="755" x2="75" y2="755" stroke="#dc2626" stroke-width="4"/>
  <text x="85" y="759" class="legend-text">Governance</text>
  
  <line x1="45" y1="773" x2="75" y2="773" stroke="#f59e0b" stroke-width="4"/>
  <text x="85" y="777" class="legend-text">Risk</text>
  
  <line x1="45" y1="791" x2="75" y2="791" stroke="#3b82f6" stroke-width="4"/>
  <text x="85" y="795" class="legend-text">Development</text>
  
  <line x1="45" y1="809" x2="75" y2="809" stroke="#22c55e" stroke-width="4"/>
  <text x="85" y="813" class="legend-text">Runtime</text>
  
  <line x1="145" y1="755" x2="175" y2="755" stroke="#8b5cf6" stroke-width="4"/>
  <text x="185" y="759" class="legend-text">Agentic</text>
  
  <line x1="145" y1="773" x2="175" y2="773" stroke="#eab308" stroke-width="4"/>
  <text x="185" y="777" class="legend-text">Compliance</text>
  
  <line x1="145" y1="791" x2="175" y2="791" stroke="#ec4899" stroke-width="4"/>
  <text x="185" y="795" class="legend-text">Incident</text>
  
  <circle cx="160" cy="809" r="8" fill="#ffffff" stroke="#1e293b" stroke-width="2"/>
  <circle cx="160" cy="809" r="4" fill="#1e293b"/>
  <text x="185" y="813" class="legend-text">Interchange</text>
  
  <!-- ============================================ -->
  <!-- KEY INTERCHANGES BOX -->
  <!-- ============================================ -->
  <rect x="950" y="720" width="220" height="115" rx="6" fill="#ffffff" stroke="#e2e8f0" stroke-width="1"/>
  
  <text x="1060" y="740" text-anchor="middle" font-size="11" font-weight="bold" fill="#1e293b">KEY INTERCHANGES</text>
  
  <text x="965" y="760" class="legend-text">• RISK TIERS — Control calibration</text>
  <text x="965" y="778" class="legend-text">• JUDGE — Async evaluation hub</text>
  <text x="965" y="796" class="legend-text">• HITL — Human decision point</text>
  <text x="965" y="814" class="legend-text">• CIRCUIT BREAKERS — Safety limits</text>
  
  <!-- Roundel logo style -->
  <circle cx="600" y="800" r="25" fill="none" stroke="#1e40af" stroke-width="6"/>
  <rect x="560" y="792" width="80" height="16" fill="#1e40af"/>
  <text x="600" y="804" text-anchor="middle" font-size="9" font-weight="bold" fill="#ffffff">AI SECURITY</text>
</svg>
