<svg xmlns="http://www.w3.org/2000/svg" viewBox="0 0 700 500">
  <defs>
    <marker id="arrow" markerWidth="10" markerHeight="7" refX="9" refY="3.5" orient="auto">
      <polygon points="0 0, 10 3.5, 0 7" fill="#475569"/>
    </marker>
    <marker id="arrow-gray" markerWidth="10" markerHeight="7" refX="9" refY="3.5" orient="auto">
      <polygon points="0 0, 10 3.5, 0 7" fill="#94a3b8"/>
    </marker>
  </defs>
  
  <rect width="700" height="500" fill="#f8fafc"/>
  
  <text x="350" y="30" font-family="Arial, sans-serif" font-size="16" font-weight="bold" fill="#1e293b" text-anchor="middle">Aria Control Architecture</text>
  <text x="350" y="48" font-family="Arial, sans-serif" font-size="11" fill="#64748b" text-anchor="middle">Customer Service AI - HIGH Risk Tier</text>
  
  <rect x="40" y="75" width="290" height="180" rx="8" fill="#f0fdf4" stroke="#22c55e" stroke-width="1" stroke-dasharray="4,2"/>
  <text x="185" y="95" font-family="Arial, sans-serif" font-size="10" font-weight="bold" fill="#166534" text-anchor="middle">INLINE (Real-time)</text>
  
  <rect x="60" y="110" width="100" height="45" rx="6" fill="#dbeafe" stroke="#3b82f6" stroke-width="1.5"/>
  <text x="110" y="137" font-family="Arial, sans-serif" font-size="11" fill="#1e40af" text-anchor="middle">Customer</text>
  
  <line x1="160" y1="132" x2="195" y2="132" stroke="#475569" stroke-width="1.5" marker-end="url(#arrow)"/>
  
  <rect x="200" y="110" width="110" height="45" rx="6" fill="#dcfce7" stroke="#22c55e" stroke-width="1.5"/>
  <text x="255" y="130" font-family="Arial, sans-serif" font-size="10" fill="#166534" text-anchor="middle">Input</text>
  <text x="255" y="143" font-family="Arial, sans-serif" font-size="10" fill="#166534" text-anchor="middle">Guardrails</text>
  
  <line x1="255" y1="155" x2="255" y2="175" stroke="#475569" stroke-width="1.5" marker-end="url(#arrow)"/>
  
  <rect x="200" y="180" width="110" height="45" rx="6" fill="#e0e7ff" stroke="#6366f1" stroke-width="1.5"/>
  <text x="255" y="200" font-family="Arial, sans-serif" font-size="10" fill="#4338ca" text-anchor="middle">Primary AI</text>
  <text x="255" y="213" font-family="Arial, sans-serif" font-size="10" fill="#4338ca" text-anchor="middle">(GPT-4)</text>
  
  <line x1="310" y1="202" x2="345" y2="202" stroke="#475569" stroke-width="1.5" marker-end="url(#arrow)"/>
  
  <rect x="350" y="75" width="310" height="180" rx="8" fill="#f0fdf4" stroke="#22c55e" stroke-width="1" stroke-dasharray="4,2"/>
  <text x="505" y="95" font-family="Arial, sans-serif" font-size="10" font-weight="bold" fill="#166534" text-anchor="middle">INLINE (continued)</text>
  
  <rect x="365" y="180" width="110" height="45" rx="6" fill="#dcfce7" stroke="#22c55e" stroke-width="1.5"/>
  <text x="420" y="200" font-family="Arial, sans-serif" font-size="10" fill="#166534" text-anchor="middle">Output</text>
  <text x="420" y="213" font-family="Arial, sans-serif" font-size="10" fill="#166534" text-anchor="middle">Guardrails</text>
  
  <line x1="475" y1="202" x2="510" y2="202" stroke="#475569" stroke-width="1.5" marker-end="url(#arrow)"/>
  
  <rect x="515" y="180" width="100" height="45" rx="6" fill="#dbeafe" stroke="#3b82f6" stroke-width="1.5"/>
  <text x="565" y="207" font-family="Arial, sans-serif" font-size="11" fill="#1e40af" text-anchor="middle">Response</text>
  
  <rect x="515" y="110" width="100" height="45" rx="6" fill="#f1f5f9" stroke="#94a3b8" stroke-width="1.5"/>
  <text x="565" y="137" font-family="Arial, sans-serif" font-size="11" fill="#475569" text-anchor="middle">Logging</text>
  
  <line x1="565" y1="180" x2="565" y2="160" stroke="#94a3b8" stroke-width="1.5" marker-end="url(#arrow-gray)"/>
  
  <rect x="40" y="280" width="620" height="190" rx="8" fill="#fefce8" stroke="#f59e0b" stroke-width="1" stroke-dasharray="4,2"/>
  <text x="350" y="300" font-family="Arial, sans-serif" font-size="10" font-weight="bold" fill="#b45309" text-anchor="middle">ASYNC (After-the-fact)</text>
  
  <path d="M 565 155 L 565 145 L 640 145 L 640 320 L 180 320 L 180 340" stroke="#94a3b8" stroke-width="1.5" fill="none" stroke-dasharray="4,2" marker-end="url(#arrow-gray)"/>
  <text x="400" y="335" font-family="Arial, sans-serif" font-size="9" fill="#94a3b8" text-anchor="middle">async (20% sample)</text>
  
  <rect x="100" y="345" width="160" height="70" rx="6" fill="#fef3c7" stroke="#f59e0b" stroke-width="1.5"/>
  <text x="180" y="370" font-family="Arial, sans-serif" font-size="11" font-weight="bold" fill="#b45309" text-anchor="middle">LLM-as-Judge</text>
  <text x="180" y="385" font-family="Arial, sans-serif" font-size="9" fill="#92400e" text-anchor="middle">Quality assurance</text>
  <text x="180" y="398" font-family="Arial, sans-serif" font-size="9" fill="#92400e" text-anchor="middle">Pattern detection</text>
  
  <line x1="260" y1="380" x2="310" y2="380" stroke="#475569" stroke-width="1.5" marker-end="url(#arrow)"/>
  
  <rect x="315" y="345" width="130" height="70" rx="6" fill="#fee2e2" stroke="#ef4444" stroke-width="1.5"/>
  <text x="380" y="370" font-family="Arial, sans-serif" font-size="11" font-weight="bold" fill="#b91c1c" text-anchor="middle">Findings</text>
  <text x="380" y="385" font-family="Arial, sans-serif" font-size="9" fill="#991b1b" text-anchor="middle">Red flags surfaced</text>
  <text x="380" y="398" font-family="Arial, sans-serif" font-size="9" fill="#991b1b" text-anchor="middle">for review</text>
  
  <line x1="445" y1="380" x2="495" y2="380" stroke="#475569" stroke-width="1.5" marker-end="url(#arrow)"/>
  
  <rect x="500" y="345" width="130" height="70" rx="6" fill="#f0fdf4" stroke="#22c55e" stroke-width="2"/>
  <text x="565" y="368" font-family="Arial, sans-serif" font-size="11" font-weight="bold" fill="#166534" text-anchor="middle">Human Review</text>
  <text x="565" y="383" font-family="Arial, sans-serif" font-size="9" fill="#166534" text-anchor="middle">Decides action</text>
  <text x="565" y="398" font-family="Arial, sans-serif" font-size="9" fill="#166534" text-anchor="middle">Accountable</text>
  
  <rect x="150" y="455" width="400" height="30" rx="4" fill="#eff6ff" stroke="#3b82f6" stroke-width="1"/>
  <text x="350" y="475" font-family="Arial, sans-serif" font-size="10" fill="#1e40af" text-anchor="middle" font-weight="bold">Guardrails block inline. Judge detects async. Humans decide.</text>
</svg>
