<svg xmlns="http://www.w3.org/2000/svg" viewBox="0 0 600 350">
  <defs>
    <marker id="arrow" markerWidth="10" markerHeight="7" refX="9" refY="3.5" orient="auto">
      <polygon points="0 0, 10 3.5, 0 7" fill="#475569"/>
    </marker>
  </defs>
  
  <rect width="600" height="350" fill="#f8fafc"/>
  
  <text x="300" y="28" font-family="Arial, sans-serif" font-size="14" font-weight="bold" fill="#1e293b" text-anchor="middle">DocBot Escalation Flow</text>
  <text x="300" y="45" font-family="Arial, sans-serif" font-size="10" fill="#64748b" text-anchor="middle">MEDIUM Risk - Standard IT Process</text>
  
  <rect x="230" y="65" width="140" height="40" rx="6" fill="#dbeafe" stroke="#3b82f6" stroke-width="1.5"/>
  <text x="300" y="90" font-family="Arial, sans-serif" font-size="11" fill="#1e40af" text-anchor="middle">Employee Query</text>
  
  <line x1="300" y1="105" x2="300" y2="130" stroke="#475569" stroke-width="1.5" marker-end="url(#arrow)"/>
  
  <polygon points="300,135 360,165 300,195 240,165" fill="#fef3c7" stroke="#f59e0b" stroke-width="1.5"/>
  <text x="300" y="162" font-family="Arial, sans-serif" font-size="10" fill="#92400e" text-anchor="middle">Blocked?</text>
  <text x="300" y="175" font-family="Arial, sans-serif" font-size="10" fill="#92400e" text-anchor="middle">(Guardrails)</text>
  
  <line x1="360" y1="165" x2="420" y2="165" stroke="#475569" stroke-width="1.5" marker-end="url(#arrow)"/>
  <text x="390" y="158" font-family="Arial, sans-serif" font-size="9" fill="#64748b" text-anchor="middle">Yes</text>
  
  <rect x="425" y="145" width="130" height="40" rx="6" fill="#fee2e2" stroke="#ef4444" stroke-width="1.5"/>
  <text x="490" y="162" font-family="Arial, sans-serif" font-size="10" fill="#b91c1c" text-anchor="middle">Blocked Response</text>
  <text x="490" y="175" font-family="Arial, sans-serif" font-size="10" fill="#b91c1c" text-anchor="middle">+ Log Event</text>
  
  <line x1="300" y1="195" x2="300" y2="220" stroke="#475569" stroke-width="1.5" marker-end="url(#arrow)"/>
  <text x="310" y="210" font-family="Arial, sans-serif" font-size="9" fill="#64748b">No</text>
  
  <rect x="230" y="225" width="140" height="40" rx="6" fill="#dcfce7" stroke="#22c55e" stroke-width="1.5"/>
  <text x="300" y="245" font-family="Arial, sans-serif" font-size="11" fill="#166534" text-anchor="middle">Response Delivered</text>
  <text x="300" y="258" font-family="Arial, sans-serif" font-size="9" fill="#166534" text-anchor="middle">+ Logged</text>
  
  <line x1="490" y1="185" x2="490" y2="280" stroke="#94a3b8" stroke-width="1.5" stroke-dasharray="4,2"/>
  <line x1="300" y1="265" x2="300" y2="280" stroke="#94a3b8" stroke-width="1.5" stroke-dasharray="4,2"/>
  
  <rect x="180" y="285" width="380" height="50" rx="6" fill="#f1f5f9" stroke="#94a3b8" stroke-width="1"/>
  <text x="370" y="305" font-family="Arial, sans-serif" font-size="10" fill="#475569" text-anchor="middle">Weekly Batch Review</text>
  <text x="370" y="320" font-family="Arial, sans-serif" font-size="9" fill="#64748b" text-anchor="middle">All blocked queries + 1% sample reviewed by analyst</text>
  
  <rect x="45" y="145" width="130" height="55" rx="6" fill="#f1f5f9" stroke="#94a3b8" stroke-width="1"/>
  <text x="110" y="165" font-family="Arial, sans-serif" font-size="10" fill="#475569" text-anchor="middle">Employee Reports</text>
  <text x="110" y="178" font-family="Arial, sans-serif" font-size="10" fill="#475569" text-anchor="middle">Issue</text>
  <text x="110" y="193" font-family="Arial, sans-serif" font-size="9" fill="#64748b" text-anchor="middle">IT Help Desk</text>
  
  <line x1="110" y1="200" x2="110" y2="280" stroke="#94a3b8" stroke-width="1.5" stroke-dasharray="4,2" marker-end="url(#arrow)"/>
</svg>
