<svg xmlns="http://www.w3.org/2000/svg" viewBox="0 0 900 560" width="900" height="560">
  <rect width="900" height="560" fill="#f8fafc"/>

  <text x="450" y="35" text-anchor="middle" font-family="Arial, sans-serif" font-size="18" font-weight="bold" fill="#1e293b">AI Governance KPI Dashboard</text>
  <text x="450" y="55" text-anchor="middle" font-family="Arial, sans-serif" font-size="12" fill="#64748b">Five metric domains for sustained AI oversight</text>

  <!-- Domain 1: Inventory Coverage -->
  <rect x="30" y="75" width="260" height="210" rx="10" fill="white" stroke="#3b82f6" stroke-width="2"/>
  <rect x="30" y="75" width="260" height="35" rx="10" fill="#3b82f6"/>
  <rect x="30" y="100" width="260" height="10" fill="#3b82f6"/>
  <text x="160" y="99" text-anchor="middle" font-family="Arial, sans-serif" font-size="12" font-weight="bold" fill="white">1. Inventory Coverage</text>

  <text x="160" y="130" text-anchor="middle" font-family="Arial, sans-serif" font-size="10" font-style="italic" fill="#64748b">How much do we know about?</text>

  <rect x="45" y="142" width="230" height="22" rx="4" fill="#eff6ff"/>
  <text x="55" y="157" font-family="Arial, sans-serif" font-size="9" fill="#1e40af">AI systems inventoried vs. total</text>
  <text x="255" y="157" text-anchor="end" font-family="Arial, sans-serif" font-size="9" font-weight="bold" fill="#1e40af">>90%</text>

  <rect x="45" y="168" width="230" height="22" rx="4" fill="#eff6ff"/>
  <text x="55" y="183" font-family="Arial, sans-serif" font-size="9" fill="#1e40af">Shadow AI detection rate</text>
  <text x="255" y="183" text-anchor="end" font-family="Arial, sans-serif" font-size="9" font-weight="bold" fill="#1e40af">Trending ↓</text>

  <rect x="45" y="194" width="230" height="22" rx="4" fill="#eff6ff"/>
  <text x="55" y="209" font-family="Arial, sans-serif" font-size="9" fill="#1e40af">Classification completeness</text>
  <text x="255" y="209" text-anchor="end" font-family="Arial, sans-serif" font-size="9" font-weight="bold" fill="#1e40af">100%</text>

  <rect x="45" y="220" width="230" height="22" rx="4" fill="#eff6ff"/>
  <text x="55" y="235" font-family="Arial, sans-serif" font-size="9" fill="#1e40af">Time to discover (mean)</text>
  <text x="255" y="235" text-anchor="end" font-family="Arial, sans-serif" font-size="9" font-weight="bold" fill="#1e40af">&lt;30 days</text>

  <rect x="45" y="246" width="230" height="22" rx="4" fill="#eff6ff"/>
  <text x="55" y="261" font-family="Arial, sans-serif" font-size="9" fill="#1e40af">Owner assignment rate</text>
  <text x="255" y="261" text-anchor="end" font-family="Arial, sans-serif" font-size="9" font-weight="bold" fill="#1e40af">100%</text>

  <!-- Domain 2: Risk & Compliance -->
  <rect x="320" y="75" width="260" height="210" rx="10" fill="white" stroke="#22c55e" stroke-width="2"/>
  <rect x="320" y="75" width="260" height="35" rx="10" fill="#22c55e"/>
  <rect x="320" y="100" width="260" height="10" fill="#22c55e"/>
  <text x="450" y="99" text-anchor="middle" font-family="Arial, sans-serif" font-size="12" font-weight="bold" fill="white">2. Risk &amp; Compliance</text>

  <text x="450" y="130" text-anchor="middle" font-family="Arial, sans-serif" font-size="10" font-style="italic" fill="#64748b">Within acceptable boundaries?</text>

  <rect x="335" y="142" width="230" height="22" rx="4" fill="#f0fdf4"/>
  <text x="345" y="157" font-family="Arial, sans-serif" font-size="9" fill="#166534">Risk assessment coverage</text>
  <text x="545" y="157" text-anchor="end" font-family="Arial, sans-serif" font-size="9" font-weight="bold" fill="#166534">100% high-risk</text>

  <rect x="335" y="168" width="230" height="22" rx="4" fill="#f0fdf4"/>
  <text x="345" y="183" font-family="Arial, sans-serif" font-size="9" fill="#166534">Policy adherence rate</text>
  <text x="545" y="183" text-anchor="end" font-family="Arial, sans-serif" font-size="9" font-weight="bold" fill="#166534">>95%</text>

  <rect x="335" y="194" width="230" height="22" rx="4" fill="#f0fdf4"/>
  <text x="345" y="209" font-family="Arial, sans-serif" font-size="9" fill="#166534">Regulatory mapping coverage</text>
  <text x="545" y="209" text-anchor="end" font-family="Arial, sans-serif" font-size="9" font-weight="bold" fill="#166534">100% in-scope</text>

  <rect x="335" y="220" width="230" height="22" rx="4" fill="#f0fdf4"/>
  <text x="345" y="235" font-family="Arial, sans-serif" font-size="9" fill="#166534">Audit finding closure (critical)</text>
  <text x="545" y="235" text-anchor="end" font-family="Arial, sans-serif" font-size="9" font-weight="bold" fill="#166534">&lt;30 days</text>

  <rect x="335" y="246" width="230" height="22" rx="4" fill="#f0fdf4"/>
  <text x="345" y="261" font-family="Arial, sans-serif" font-size="9" fill="#166534">Open exceptions</text>
  <text x="545" y="261" text-anchor="end" font-family="Arial, sans-serif" font-size="9" font-weight="bold" fill="#166534">Trending ↓</text>

  <!-- Domain 3: Operational Health -->
  <rect x="610" y="75" width="260" height="210" rx="10" fill="white" stroke="#f59e0b" stroke-width="2"/>
  <rect x="610" y="75" width="260" height="35" rx="10" fill="#f59e0b"/>
  <rect x="610" y="100" width="260" height="10" fill="#f59e0b"/>
  <text x="740" y="99" text-anchor="middle" font-family="Arial, sans-serif" font-size="12" font-weight="bold" fill="white">3. Operational Health</text>

  <text x="740" y="130" text-anchor="middle" font-family="Arial, sans-serif" font-size="10" font-style="italic" fill="#64748b">Performing as expected?</text>

  <rect x="625" y="142" width="230" height="22" rx="4" fill="#fefce8"/>
  <text x="635" y="157" font-family="Arial, sans-serif" font-size="9" fill="#854d0e">Model drift indicators</text>
  <text x="835" y="157" text-anchor="end" font-family="Arial, sans-serif" font-size="9" font-weight="bold" fill="#854d0e">In threshold</text>

  <rect x="625" y="168" width="230" height="22" rx="4" fill="#fefce8"/>
  <text x="635" y="183" font-family="Arial, sans-serif" font-size="9" fill="#854d0e">Hallucination rate</text>
  <text x="835" y="183" text-anchor="end" font-family="Arial, sans-serif" font-size="9" font-weight="bold" fill="#854d0e">Trending ↓</text>

  <rect x="625" y="194" width="230" height="22" rx="4" fill="#fefce8"/>
  <text x="635" y="209" font-family="Arial, sans-serif" font-size="9" fill="#854d0e">Guardrail activation rate</text>
  <text x="835" y="209" text-anchor="end" font-family="Arial, sans-serif" font-size="9" font-weight="bold" fill="#854d0e">Stable</text>

  <rect x="625" y="220" width="230" height="22" rx="4" fill="#fefce8"/>
  <text x="635" y="235" font-family="Arial, sans-serif" font-size="9" fill="#854d0e">Escalation rate</text>
  <text x="835" y="235" text-anchor="end" font-family="Arial, sans-serif" font-size="9" font-weight="bold" fill="#854d0e">Within capacity</text>

  <rect x="625" y="246" width="230" height="22" rx="4" fill="#fefce8"/>
  <text x="635" y="261" font-family="Arial, sans-serif" font-size="9" fill="#854d0e">Judge agreement rate</text>
  <text x="835" y="261" text-anchor="end" font-family="Arial, sans-serif" font-size="9" font-weight="bold" fill="#854d0e">>80%</text>

  <!-- Domain 4: Security Posture -->
  <rect x="100" y="310" width="310" height="210" rx="10" fill="white" stroke="#dc2626" stroke-width="2"/>
  <rect x="100" y="310" width="310" height="35" rx="10" fill="#dc2626"/>
  <rect x="100" y="335" width="310" height="10" fill="#dc2626"/>
  <text x="255" y="334" text-anchor="middle" font-family="Arial, sans-serif" font-size="12" font-weight="bold" fill="white">4. Security Posture</text>

  <text x="255" y="365" text-anchor="middle" font-family="Arial, sans-serif" font-size="10" font-style="italic" fill="#64748b">Are AI systems secure?</text>

  <rect x="115" y="377" width="280" height="22" rx="4" fill="#fef2f2"/>
  <text x="125" y="392" font-family="Arial, sans-serif" font-size="9" fill="#991b1b">AI security incidents per period</text>
  <text x="375" y="392" text-anchor="end" font-family="Arial, sans-serif" font-size="9" font-weight="bold" fill="#991b1b">Measured, trending ↓</text>

  <rect x="115" y="403" width="280" height="22" rx="4" fill="#fef2f2"/>
  <text x="125" y="418" font-family="Arial, sans-serif" font-size="9" fill="#991b1b">Mean time to detect (MTTD)</text>
  <text x="375" y="418" text-anchor="end" font-family="Arial, sans-serif" font-size="9" font-weight="bold" fill="#991b1b">&lt;24 hours</text>

  <rect x="115" y="429" width="280" height="22" rx="4" fill="#fef2f2"/>
  <text x="125" y="444" font-family="Arial, sans-serif" font-size="9" fill="#991b1b">Mean time to respond (MTTR)</text>
  <text x="375" y="444" text-anchor="end" font-family="Arial, sans-serif" font-size="9" font-weight="bold" fill="#991b1b">&lt;4 hours (critical)</text>

  <rect x="115" y="455" width="280" height="22" rx="4" fill="#fef2f2"/>
  <text x="125" y="470" font-family="Arial, sans-serif" font-size="9" fill="#991b1b">Data leakage incidents via AI</text>
  <text x="375" y="470" text-anchor="end" font-family="Arial, sans-serif" font-size="9" font-weight="bold" fill="#991b1b">Zero target</text>

  <rect x="115" y="481" width="280" height="22" rx="4" fill="#fef2f2"/>
  <text x="125" y="496" font-family="Arial, sans-serif" font-size="9" fill="#991b1b">Access control coverage</text>
  <text x="375" y="496" text-anchor="end" font-family="Arial, sans-serif" font-size="9" font-weight="bold" fill="#991b1b">100%</text>

  <!-- Domain 5: Governance Maturity -->
  <rect x="440" y="310" width="310" height="210" rx="10" fill="white" stroke="#7c3aed" stroke-width="2"/>
  <rect x="440" y="310" width="310" height="35" rx="10" fill="#7c3aed"/>
  <rect x="440" y="335" width="310" height="10" fill="#7c3aed"/>
  <text x="595" y="334" text-anchor="middle" font-family="Arial, sans-serif" font-size="12" font-weight="bold" fill="white">5. Governance Maturity</text>

  <text x="595" y="365" text-anchor="middle" font-family="Arial, sans-serif" font-size="10" font-style="italic" fill="#64748b">Is the programme improving?</text>

  <rect x="455" y="377" width="280" height="22" rx="4" fill="#f5f3ff"/>
  <text x="465" y="392" font-family="Arial, sans-serif" font-size="9" fill="#6b21a8">Governance programme coverage</text>
  <text x="715" y="392" text-anchor="end" font-family="Arial, sans-serif" font-size="9" font-weight="bold" fill="#6b21a8">>90%</text>

  <rect x="455" y="403" width="280" height="22" rx="4" fill="#f5f3ff"/>
  <text x="465" y="418" font-family="Arial, sans-serif" font-size="9" fill="#6b21a8">Board reporting cadence</text>
  <text x="715" y="418" text-anchor="end" font-family="Arial, sans-serif" font-size="9" font-weight="bold" fill="#6b21a8">Quarterly min.</text>

  <rect x="455" y="429" width="280" height="22" rx="4" fill="#f5f3ff"/>
  <text x="465" y="444" font-family="Arial, sans-serif" font-size="9" fill="#6b21a8">AI governance training completion</text>
  <text x="715" y="444" text-anchor="end" font-family="Arial, sans-serif" font-size="9" font-weight="bold" fill="#6b21a8">>90%</text>

  <rect x="455" y="455" width="280" height="22" rx="4" fill="#f5f3ff"/>
  <text x="465" y="470" font-family="Arial, sans-serif" font-size="9" fill="#6b21a8">Automated monitoring coverage</text>
  <text x="715" y="470" text-anchor="end" font-family="Arial, sans-serif" font-size="9" font-weight="bold" fill="#6b21a8">>80%</text>

  <rect x="455" y="481" width="280" height="22" rx="4" fill="#f5f3ff"/>
  <text x="465" y="496" font-family="Arial, sans-serif" font-size="9" fill="#6b21a8">Policy review cadence</text>
  <text x="715" y="496" text-anchor="end" font-family="Arial, sans-serif" font-size="9" font-weight="bold" fill="#6b21a8">Annually min.</text>

  <!-- Bottom note -->
  <rect x="30" y="535" width="840" height="3" rx="1.5" fill="#e2e8f0"/>
  <text x="450" y="553" text-anchor="middle" font-family="Arial, sans-serif" font-size="9" fill="#94a3b8">Start with 5-10 KPIs tied to decisions. Metrics without action triggers are governance theatre.</text>
</svg>
