<svg xmlns="http://www.w3.org/2000/svg" viewBox="0 0 1200 1050" font-family="'Segoe UI', 'Helvetica Neue', Arial, sans-serif">
  <defs>
    <linearGradient id="bg3" x1="0%" y1="0%" x2="100%" y2="100%">
      <stop offset="0%" style="stop-color:#0a0e1a"/>
      <stop offset="100%" style="stop-color:#1a1e3a"/>
    </linearGradient>
    <filter id="sh3">
      <feDropShadow dx="0" dy="2" stdDeviation="3" flood-color="#000" flood-opacity="0.3"/>
    </filter>
  </defs>

  <rect width="1200" height="1050" fill="url(#bg3)"/>

  <!-- Title -->
  <text x="600" y="40" text-anchor="middle" fill="#fff" font-size="20" font-weight="700" letter-spacing="2">OWASP RISK MAPPING — MASO CONTROL COVERAGE</text>
  <text x="600" y="60" text-anchor="middle" fill="#ff6b35" font-size="11" letter-spacing="2">LLM TOP 10 (2025) + AGENTIC TOP 10 (2026) → MASO CONTROLS &amp; PACE PHASES</text>
  <line x1="200" y1="72" x2="1000" y2="72" stroke="#ff6b35" stroke-width="0.8" opacity="0.4"/>

  <!-- LLM TOP 10 Section Header -->
  <rect x="40" y="90" width="550" height="32" rx="4" fill="#0078d4" opacity="0.2"/>
  <text x="315" y="112" text-anchor="middle" fill="#00c9ff" font-size="14" font-weight="700" letter-spacing="1">OWASP TOP 10 FOR LLM APPS (2025)</text>

  <!-- LLM entries -->
  <g font-size="10">
    <!-- LLM01 -->
    <rect x="40" y="130" width="550" height="38" rx="4" fill="#0d1225" stroke="#333" stroke-width="0.5"/>
    <rect x="40" y="130" width="4" height="38" rx="2" fill="#f5576c"/>
    <text x="55" y="146" fill="#f5576c" font-size="10" font-weight="700">LLM01</text>
    <text x="100" y="146" fill="#ccd" font-size="10">Prompt Injection</text>
    <text x="55" y="162" fill="#667" font-size="9">→ Input guardrails · Agent isolation · Goal integrity checks</text>
    <rect x="510" y="136" width="70" height="18" rx="9" fill="#ff6b35" opacity="0.2"/>
    <text x="545" y="149" text-anchor="middle" fill="#ff6b35" font-size="8" font-weight="600">CRITICAL</text>

    <!-- LLM02 -->
    <rect x="40" y="174" width="550" height="38" rx="4" fill="#0d1225" stroke="#333" stroke-width="0.5"/>
    <rect x="40" y="174" width="4" height="38" rx="2" fill="#f5576c"/>
    <text x="55" y="190" fill="#f5576c" font-size="10" font-weight="700">LLM02</text>
    <text x="100" y="190" fill="#ccd" font-size="10">Sensitive Information Disclosure</text>
    <text x="55" y="206" fill="#667" font-size="9">→ Output filtering · DLP integration · Cross-agent data fencing</text>
    <rect x="510" y="180" width="70" height="18" rx="9" fill="#f5576c" opacity="0.2"/>
    <text x="545" y="193" text-anchor="middle" fill="#f5576c" font-size="8" font-weight="600">HIGH</text>

    <!-- LLM03 -->
    <rect x="40" y="218" width="550" height="38" rx="4" fill="#0d1225" stroke="#333" stroke-width="0.5"/>
    <rect x="40" y="218" width="4" height="38" rx="2" fill="#ffd700"/>
    <text x="55" y="234" fill="#ffd700" font-size="10" font-weight="700">LLM03</text>
    <text x="100" y="234" fill="#ccd" font-size="10">Supply Chain Vulnerabilities</text>
    <text x="55" y="250" fill="#667" font-size="9">→ Model provenance · AIBOM · Signed tool manifests</text>
    <rect x="510" y="224" width="70" height="18" rx="9" fill="#f5576c" opacity="0.2"/>
    <text x="545" y="237" text-anchor="middle" fill="#f5576c" font-size="8" font-weight="600">HIGH</text>

    <!-- LLM04 -->
    <rect x="40" y="262" width="550" height="38" rx="4" fill="#0d1225" stroke="#333" stroke-width="0.5"/>
    <rect x="40" y="262" width="4" height="38" rx="2" fill="#ffd700"/>
    <text x="55" y="278" fill="#ffd700" font-size="10" font-weight="700">LLM04</text>
    <text x="100" y="278" fill="#ccd" font-size="10">Data and Model Poisoning</text>
    <text x="55" y="294" fill="#667" font-size="9">→ RAG integrity checks · Training data validation · Context fencing</text>
    <rect x="510" y="268" width="70" height="18" rx="9" fill="#ffd700" opacity="0.2"/>
    <text x="545" y="281" text-anchor="middle" fill="#ffd700" font-size="8" font-weight="600">MEDIUM</text>

    <!-- LLM05 -->
    <rect x="40" y="306" width="550" height="38" rx="4" fill="#0d1225" stroke="#333" stroke-width="0.5"/>
    <rect x="40" y="306" width="4" height="38" rx="2" fill="#ffd700"/>
    <text x="55" y="322" fill="#ffd700" font-size="10" font-weight="700">LLM05</text>
    <text x="100" y="322" fill="#ccd" font-size="10">Improper Output Handling</text>
    <text x="55" y="338" fill="#667" font-size="9">→ Output validation layer · LLM-as-Judge review · Sanitisation</text>
    <rect x="510" y="312" width="70" height="18" rx="9" fill="#f5576c" opacity="0.2"/>
    <text x="545" y="325" text-anchor="middle" fill="#f5576c" font-size="8" font-weight="600">HIGH</text>

    <!-- LLM06 -->
    <rect x="40" y="350" width="550" height="38" rx="4" fill="#0d1225" stroke="#333" stroke-width="0.5"/>
    <rect x="40" y="350" width="4" height="38" rx="2" fill="#ff6b35"/>
    <text x="55" y="366" fill="#ff6b35" font-size="10" font-weight="700">LLM06</text>
    <text x="100" y="366" fill="#ccd" font-size="10">Excessive Agency</text>
    <text x="55" y="382" fill="#667" font-size="9">→ Least privilege · Scoped tool access · PACE containment</text>
    <rect x="510" y="356" width="70" height="18" rx="9" fill="#ff6b35" opacity="0.2"/>
    <text x="545" y="369" text-anchor="middle" fill="#ff6b35" font-size="8" font-weight="600">CRITICAL</text>

    <!-- LLM07 -->
    <rect x="40" y="394" width="550" height="38" rx="4" fill="#0d1225" stroke="#333" stroke-width="0.5"/>
    <rect x="40" y="394" width="4" height="38" rx="2" fill="#ffd700"/>
    <text x="55" y="410" fill="#ffd700" font-size="10" font-weight="700">LLM07</text>
    <text x="100" y="410" fill="#ccd" font-size="10">System Prompt Leakage</text>
    <text x="55" y="426" fill="#667" font-size="9">→ Prompt isolation · Agent-specific system boundaries · Obfuscation</text>
    <rect x="510" y="400" width="70" height="18" rx="9" fill="#ffd700" opacity="0.2"/>
    <text x="545" y="413" text-anchor="middle" fill="#ffd700" font-size="8" font-weight="600">MEDIUM</text>

    <!-- LLM08 -->
    <rect x="40" y="438" width="550" height="38" rx="4" fill="#0d1225" stroke="#333" stroke-width="0.5"/>
    <rect x="40" y="438" width="4" height="38" rx="2" fill="#ffd700"/>
    <text x="55" y="454" fill="#ffd700" font-size="10" font-weight="700">LLM08</text>
    <text x="100" y="454" fill="#ccd" font-size="10">Vector and Embedding Weaknesses</text>
    <text x="55" y="470" fill="#667" font-size="9">→ RAG access controls · Embedding integrity · Source validation</text>
    <rect x="510" y="444" width="70" height="18" rx="9" fill="#ffd700" opacity="0.2"/>
    <text x="545" y="457" text-anchor="middle" fill="#ffd700" font-size="8" font-weight="600">MEDIUM</text>

    <!-- LLM09 -->
    <rect x="40" y="482" width="550" height="38" rx="4" fill="#0d1225" stroke="#333" stroke-width="0.5"/>
    <rect x="40" y="482" width="4" height="38" rx="2" fill="#f5576c"/>
    <text x="55" y="498" fill="#f5576c" font-size="10" font-weight="700">LLM09</text>
    <text x="100" y="498" fill="#ccd" font-size="10">Misinformation</text>
    <text x="55" y="514" fill="#667" font-size="9">→ Cross-agent validation · Fact-checking agent · Confidence scoring</text>
    <rect x="510" y="488" width="70" height="18" rx="9" fill="#f5576c" opacity="0.2"/>
    <text x="545" y="501" text-anchor="middle" fill="#f5576c" font-size="8" font-weight="600">HIGH</text>

    <!-- LLM10 -->
    <rect x="40" y="526" width="550" height="38" rx="4" fill="#0d1225" stroke="#333" stroke-width="0.5"/>
    <rect x="40" y="526" width="4" height="38" rx="2" fill="#ffd700"/>
    <text x="55" y="542" fill="#ffd700" font-size="10" font-weight="700">LLM10</text>
    <text x="100" y="542" fill="#ccd" font-size="10">Unbounded Consumption</text>
    <text x="55" y="558" fill="#667" font-size="9">→ Rate limiting · Cost caps · Per-agent resource quotas</text>
    <rect x="510" y="532" width="70" height="18" rx="9" fill="#ffd700" opacity="0.2"/>
    <text x="545" y="545" text-anchor="middle" fill="#ffd700" font-size="8" font-weight="600">MEDIUM</text>
  </g>

  <!-- AGENTIC TOP 10 Section Header -->
  <rect x="610" y="90" width="550" height="32" rx="4" fill="#f5576c" opacity="0.15"/>
  <text x="885" y="112" text-anchor="middle" fill="#f093fb" font-size="14" font-weight="700" letter-spacing="1">OWASP TOP 10 AGENTIC APPS (2026)</text>

  <!-- Agentic entries -->
  <g font-size="10">
    <!-- ASI01 -->
    <rect x="610" y="130" width="550" height="38" rx="4" fill="#0d1225" stroke="#333" stroke-width="0.5"/>
    <rect x="610" y="130" width="4" height="38" rx="2" fill="#f5576c"/>
    <text x="625" y="146" fill="#f5576c" font-size="10" font-weight="700">ASI01</text>
    <text x="670" y="146" fill="#ccd" font-size="10">Agent Goal Hijack</text>
    <text x="625" y="162" fill="#667" font-size="9">→ Goal integrity monitor · Prompt boundary enforcement · LLM01 overlap</text>
    <rect x="1080" y="136" width="70" height="18" rx="9" fill="#ff6b35" opacity="0.2"/>
    <text x="1115" y="149" text-anchor="middle" fill="#ff6b35" font-size="8" font-weight="600">CRITICAL</text>

    <!-- ASI02 -->
    <rect x="610" y="174" width="550" height="38" rx="4" fill="#0d1225" stroke="#333" stroke-width="0.5"/>
    <rect x="610" y="174" width="4" height="38" rx="2" fill="#f5576c"/>
    <text x="625" y="190" fill="#f5576c" font-size="10" font-weight="700">ASI02</text>
    <text x="670" y="190" fill="#ccd" font-size="10">Tool Misuse</text>
    <text x="625" y="206" fill="#667" font-size="9">→ Signed tool manifests · Argument validation · Sandbox execution</text>
    <rect x="1080" y="180" width="70" height="18" rx="9" fill="#ff6b35" opacity="0.2"/>
    <text x="1115" y="193" text-anchor="middle" fill="#ff6b35" font-size="8" font-weight="600">CRITICAL</text>

    <!-- ASI03 -->
    <rect x="610" y="218" width="550" height="38" rx="4" fill="#0d1225" stroke="#333" stroke-width="0.5"/>
    <rect x="610" y="218" width="4" height="38" rx="2" fill="#f5576c"/>
    <text x="625" y="234" fill="#f5576c" font-size="10" font-weight="700">ASI03</text>
    <text x="670" y="234" fill="#ccd" font-size="10">Identity &amp; Privilege Abuse</text>
    <text x="625" y="250" fill="#667" font-size="9">→ Per-agent NHI · Scoped short-lived creds · Zero-trust inter-agent</text>
    <rect x="1080" y="224" width="70" height="18" rx="9" fill="#ff6b35" opacity="0.2"/>
    <text x="1115" y="237" text-anchor="middle" fill="#ff6b35" font-size="8" font-weight="600">CRITICAL</text>

    <!-- ASI04 -->
    <rect x="610" y="262" width="550" height="38" rx="4" fill="#0d1225" stroke="#333" stroke-width="0.5"/>
    <rect x="610" y="262" width="4" height="38" rx="2" fill="#f5576c"/>
    <text x="625" y="278" fill="#f5576c" font-size="10" font-weight="700">ASI04</text>
    <text x="670" y="278" fill="#ccd" font-size="10">Agentic Supply Chain Vulnerabilities</text>
    <text x="625" y="294" fill="#667" font-size="9">→ MCP server vetting · A2A trust chain · Runtime component signing</text>
    <rect x="1080" y="268" width="70" height="18" rx="9" fill="#f5576c" opacity="0.2"/>
    <text x="1115" y="281" text-anchor="middle" fill="#f5576c" font-size="8" font-weight="600">HIGH</text>

    <!-- ASI05 -->
    <rect x="610" y="306" width="550" height="38" rx="4" fill="#0d1225" stroke="#333" stroke-width="0.5"/>
    <rect x="610" y="306" width="4" height="38" rx="2" fill="#ffd700"/>
    <text x="625" y="322" fill="#ffd700" font-size="10" font-weight="700">ASI05</text>
    <text x="670" y="322" fill="#ccd" font-size="10">Unexpected Code Execution</text>
    <text x="625" y="338" fill="#667" font-size="9">→ Code sandbox · Execution allow-lists · Output containment</text>
    <rect x="1080" y="312" width="70" height="18" rx="9" fill="#f5576c" opacity="0.2"/>
    <text x="1115" y="325" text-anchor="middle" fill="#f5576c" font-size="8" font-weight="600">HIGH</text>

    <!-- ASI06 -->
    <rect x="610" y="350" width="550" height="38" rx="4" fill="#0d1225" stroke="#333" stroke-width="0.5"/>
    <rect x="610" y="350" width="4" height="38" rx="2" fill="#f5576c"/>
    <text x="625" y="366" fill="#f5576c" font-size="10" font-weight="700">ASI06</text>
    <text x="670" y="366" fill="#ccd" font-size="10">Memory &amp; Context Poisoning</text>
    <text x="625" y="382" fill="#667" font-size="9">→ Memory integrity checks · Context window fencing · Session isolation</text>
    <rect x="1080" y="356" width="70" height="18" rx="9" fill="#ff6b35" opacity="0.2"/>
    <text x="1115" y="369" text-anchor="middle" fill="#ff6b35" font-size="8" font-weight="600">CRITICAL</text>

    <!-- ASI07 -->
    <rect x="610" y="394" width="550" height="38" rx="4" fill="#0d1225" stroke="#333" stroke-width="0.5"/>
    <rect x="610" y="394" width="4" height="38" rx="2" fill="#ff6b35"/>
    <text x="625" y="410" fill="#ff6b35" font-size="10" font-weight="700">ASI07</text>
    <text x="670" y="410" fill="#ccd" font-size="10">Insecure Inter-Agent Communication</text>
    <text x="625" y="426" fill="#667" font-size="9">→ Signed message bus · Mutual auth · Schema validation</text>
    <rect x="1080" y="400" width="70" height="18" rx="9" fill="#ff6b35" opacity="0.2"/>
    <text x="1115" y="413" text-anchor="middle" fill="#ff6b35" font-size="8" font-weight="600">CRITICAL</text>

    <!-- ASI08 -->
    <rect x="610" y="438" width="550" height="38" rx="4" fill="#0d1225" stroke="#333" stroke-width="0.5"/>
    <rect x="610" y="438" width="4" height="38" rx="2" fill="#f5576c"/>
    <text x="625" y="454" fill="#f5576c" font-size="10" font-weight="700">ASI08</text>
    <text x="670" y="454" fill="#ccd" font-size="10">Cascading Failures</text>
    <text x="625" y="470" fill="#667" font-size="9">→ Blast radius caps · Circuit breakers · PACE escalation</text>
    <rect x="1080" y="444" width="70" height="18" rx="9" fill="#f5576c" opacity="0.2"/>
    <text x="1115" y="457" text-anchor="middle" fill="#f5576c" font-size="8" font-weight="600">HIGH</text>

    <!-- ASI09 -->
    <rect x="610" y="482" width="550" height="38" rx="4" fill="#0d1225" stroke="#333" stroke-width="0.5"/>
    <rect x="610" y="482" width="4" height="38" rx="2" fill="#ffd700"/>
    <text x="625" y="498" fill="#ffd700" font-size="10" font-weight="700">ASI09</text>
    <text x="670" y="498" fill="#ccd" font-size="10">Human-Agent Trust Exploitation</text>
    <text x="625" y="514" fill="#667" font-size="9">→ Confidence calibration · Decision audit · Override protocols</text>
    <rect x="1080" y="488" width="70" height="18" rx="9" fill="#f5576c" opacity="0.2"/>
    <text x="1115" y="501" text-anchor="middle" fill="#f5576c" font-size="8" font-weight="600">HIGH</text>

    <!-- ASI10 -->
    <rect x="610" y="526" width="550" height="38" rx="4" fill="#0d1225" stroke="#333" stroke-width="0.5"/>
    <rect x="610" y="526" width="4" height="38" rx="2" fill="#f5576c"/>
    <text x="625" y="542" fill="#f5576c" font-size="10" font-weight="700">ASI10</text>
    <text x="670" y="542" fill="#ccd" font-size="10">Rogue Agents</text>
    <text x="625" y="558" fill="#667" font-size="9">→ Behavioural drift detection · Kill switch · Isolated audit</text>
    <rect x="1080" y="532" width="70" height="18" rx="9" fill="#ff6b35" opacity="0.2"/>
    <text x="1115" y="545" text-anchor="middle" fill="#ff6b35" font-size="8" font-weight="600">CRITICAL</text>
  </g>

  <!-- Cross-mapping section -->
  <rect x="40" y="585" width="1120" height="32" rx="4" fill="#ff6b35" opacity="0.1"/>
  <text x="600" y="607" text-anchor="middle" fill="#ff6b35" font-size="14" font-weight="700" letter-spacing="1">MASO CONTROL DOMAINS — CROSS-CUTTING MITIGATIONS</text>

  <!-- Control domain boxes -->
  <g transform="translate(40,630)">
    <rect width="215" height="120" rx="8" fill="#0d1225" stroke="#00c9ff" stroke-width="1.5"/>
    <rect width="215" height="4" rx="2" fill="#00c9ff"/>
    <text x="107" y="25" text-anchor="middle" fill="#00c9ff" font-size="12" font-weight="700">IDENTITY &amp; ACCESS</text>
    <text x="15" y="45" fill="#8899aa" font-size="9">Per-agent NHI identities</text>
    <text x="15" y="60" fill="#8899aa" font-size="9">Short-lived scoped credentials</text>
    <text x="15" y="75" fill="#8899aa" font-size="9">Zero-trust inter-agent auth</text>
    <text x="15" y="90" fill="#8899aa" font-size="9">Tool-level RBAC</text>
    <text x="15" y="108" fill="#555" font-size="8">Covers: ASI03, ASI07, LLM06</text>
  </g>

  <g transform="translate(275,630)">
    <rect width="215" height="120" rx="8" fill="#0d1225" stroke="#92fe9d" stroke-width="1.5"/>
    <rect width="215" height="4" rx="2" fill="#92fe9d"/>
    <text x="107" y="25" text-anchor="middle" fill="#92fe9d" font-size="12" font-weight="700">DATA PROTECTION</text>
    <text x="15" y="45" fill="#8899aa" font-size="9">Cross-agent data fencing</text>
    <text x="15" y="60" fill="#8899aa" font-size="9">Output DLP scanning</text>
    <text x="15" y="75" fill="#8899aa" font-size="9">RAG integrity validation</text>
    <text x="15" y="90" fill="#8899aa" font-size="9">Memory poisoning detection</text>
    <text x="15" y="108" fill="#555" font-size="8">Covers: LLM02, LLM04, ASI06, LLM08</text>
  </g>

  <g transform="translate(510,630)">
    <rect width="215" height="120" rx="8" fill="#0d1225" stroke="#ffd700" stroke-width="1.5"/>
    <rect width="215" height="4" rx="2" fill="#ffd700"/>
    <text x="107" y="25" text-anchor="middle" fill="#ffd700" font-size="12" font-weight="700">EXECUTION CONTROL</text>
    <text x="15" y="45" fill="#8899aa" font-size="9">Tool sandbox &amp; allow-lists</text>
    <text x="15" y="60" fill="#8899aa" font-size="9">Code execution isolation</text>
    <text x="15" y="75" fill="#8899aa" font-size="9">Blast radius containment</text>
    <text x="15" y="90" fill="#8899aa" font-size="9">Circuit breaker patterns</text>
    <text x="15" y="108" fill="#555" font-size="8">Covers: ASI02, ASI05, ASI08, LLM05</text>
  </g>

  <g transform="translate(745,630)">
    <rect width="215" height="120" rx="8" fill="#0d1225" stroke="#f093fb" stroke-width="1.5"/>
    <rect width="215" height="4" rx="2" fill="#f093fb"/>
    <text x="107" y="25" text-anchor="middle" fill="#f093fb" font-size="12" font-weight="700">OBSERVABILITY</text>
    <text x="15" y="45" fill="#8899aa" font-size="9">Immutable decision chain logs</text>
    <text x="15" y="60" fill="#8899aa" font-size="9">Behavioural drift detection</text>
    <text x="15" y="75" fill="#8899aa" font-size="9">Anomaly scoring per agent</text>
    <text x="15" y="90" fill="#8899aa" font-size="9">SIEM/SOAR integration</text>
    <text x="15" y="108" fill="#555" font-size="8">Covers: ASI09, ASI10, LLM09, LLM10</text>
  </g>

  <g transform="translate(980,630)">
    <rect width="180" height="120" rx="8" fill="#0d1225" stroke="#ff6b35" stroke-width="1.5"/>
    <rect width="180" height="4" rx="2" fill="#ff6b35"/>
    <text x="90" y="25" text-anchor="middle" fill="#ff6b35" font-size="12" font-weight="700">SUPPLY CHAIN</text>
    <text x="15" y="45" fill="#8899aa" font-size="9">Model provenance/AIBOM</text>
    <text x="15" y="60" fill="#8899aa" font-size="9">MCP server vetting</text>
    <text x="15" y="75" fill="#8899aa" font-size="9">Signed tool manifests</text>
    <text x="15" y="90" fill="#8899aa" font-size="9">Runtime component audit</text>
    <text x="15" y="108" fill="#555" font-size="8">Covers: LLM03, ASI04</text>
  </g>

  <!-- PACE mapping strip -->
  <rect x="40" y="770" width="1120" height="70" rx="8" fill="#0a0e1a" stroke="#ff6b35" stroke-width="1"/>
  <text x="600" y="795" text-anchor="middle" fill="#ff6b35" font-size="12" font-weight="700" letter-spacing="1">PACE PHASE ACTIVATION PER RISK SEVERITY</text>
  <text x="155" y="822" text-anchor="middle" fill="#ff6b35" font-size="10" font-weight="600">PRIMARY</text>
  <text x="155" y="835" text-anchor="middle" fill="#667" font-size="8">All MEDIUM risks</text>
  <text x="390" y="822" text-anchor="middle" fill="#00c9ff" font-size="10" font-weight="600">ALTERNATE</text>
  <text x="390" y="835" text-anchor="middle" fill="#667" font-size="8">Single HIGH risk materialised</text>
  <text x="650" y="822" text-anchor="middle" fill="#ffd700" font-size="10" font-weight="600">CONTINGENCY</text>
  <text x="650" y="835" text-anchor="middle" fill="#667" font-size="8">Multiple HIGH or single CRITICAL</text>
  <text x="940" y="822" text-anchor="middle" fill="#f5576c" font-size="10" font-weight="600">EMERGENCY</text>
  <text x="940" y="835" text-anchor="middle" fill="#667" font-size="8">Cascading failure / data exfiltration</text>

  <!-- Regulatory mapping footer -->
  <rect x="40" y="860" width="1120" height="65" rx="6" fill="#0d1225" stroke="#333" stroke-width="0.5"/>
  <text x="600" y="885" text-anchor="middle" fill="#aab" font-size="11" font-weight="600">REGULATORY &amp; STANDARDS ALIGNMENT</text>
  <text x="600" y="905" text-anchor="middle" fill="#667" font-size="9">EU AI Act (Art. 9, 14, 15) · NIST AI RMF (Govern, Map, Measure, Manage) · ISO 42001 (§8.1-8.6) · MITRE ATLAS · DORA (Art. 11) · APRA CPS 234</text>
  <text x="600" y="918" text-anchor="middle" fill="#555" font-size="8">Mapped from parent: Enterprise AI Security Controls Framework — github.com/JonathanCGill/enterprise-ai-security-controls-framework</text>

  <!-- Footer -->
  <text x="600" y="1040" text-anchor="middle" fill="#444" font-size="9">MASO Framework v1.0 · Multi-Agent Security Operations · Jonathan Gill · February 2026</text>
</svg>
