<svg xmlns="http://www.w3.org/2000/svg" viewBox="0 0 700 240" font-family="'Segoe UI', system-ui, -apple-system, sans-serif">
  <defs>
    <filter id="shadow" x="-2%" y="-2%" width="104%" height="108%">
      <feDropShadow dx="0" dy="1" stdDeviation="2" flood-color="#00000012"/>
    </filter>
    <marker id="arrow" viewBox="0 0 10 10" refX="9" refY="5" markerWidth="7" markerHeight="7" orient="auto-start-reverse">
      <path d="M 0 0 L 10 5 L 0 10 z" fill="#90A4AE"/>
    </marker>
  </defs>

  <!-- Background -->
  <rect width="700" height="240" rx="10" fill="#FAFAFA"/>

  <!-- Title -->
  <text x="350" y="28" text-anchor="middle" fill="#37474F" font-size="14" font-weight="600">PACE Resilience — Structured Degradation Path</text>

  <!-- P — Primary -->
  <rect x="20" y="50" width="150" height="72" rx="8" fill="#2E7D32" filter="url(#shadow)"/>
  <text x="95" y="72" text-anchor="middle" fill="white" font-size="15" font-weight="700">P</text>
  <text x="95" y="90" text-anchor="middle" fill="white" font-size="12" font-weight="500">Primary</text>
  <text x="95" y="108" text-anchor="middle" fill="#C8E6C9" font-size="10">All three layers</text>
  <text x="95" y="118" text-anchor="middle" fill="#C8E6C9" font-size="10">operational</text>

  <!-- Arrow P → A -->
  <line x1="174" y1="86" x2="192" y2="86" stroke="#90A4AE" stroke-width="1.5" marker-end="url(#arrow)"/>

  <!-- A — Alternate -->
  <rect x="196" y="50" width="150" height="72" rx="8" fill="#F57F17" filter="url(#shadow)"/>
  <text x="271" y="72" text-anchor="middle" fill="white" font-size="15" font-weight="700">A</text>
  <text x="271" y="90" text-anchor="middle" fill="white" font-size="12" font-weight="500">Alternate</text>
  <text x="271" y="108" text-anchor="middle" fill="#FFF9C4" font-size="10">One layer degraded</text>
  <text x="271" y="118" text-anchor="middle" fill="#FFF9C4" font-size="10">reduced scope</text>

  <!-- Arrow A → C -->
  <line x1="350" y1="86" x2="368" y2="86" stroke="#90A4AE" stroke-width="1.5" marker-end="url(#arrow)"/>

  <!-- C — Contingency -->
  <rect x="372" y="50" width="150" height="72" rx="8" fill="#E65100" filter="url(#shadow)"/>
  <text x="447" y="72" text-anchor="middle" fill="white" font-size="15" font-weight="700">C</text>
  <text x="447" y="90" text-anchor="middle" fill="white" font-size="12" font-weight="500">Contingency</text>
  <text x="447" y="108" text-anchor="middle" fill="#FFCCBC" font-size="10">Multiple layers degraded</text>
  <text x="447" y="118" text-anchor="middle" fill="#FFCCBC" font-size="10">human review required</text>

  <!-- Arrow C → E -->
  <line x1="526" y1="86" x2="544" y2="86" stroke="#90A4AE" stroke-width="1.5" marker-end="url(#arrow)"/>

  <!-- E — Emergency -->
  <rect x="548" y="50" width="134" height="72" rx="8" fill="#B71C1C" filter="url(#shadow)"/>
  <text x="615" y="72" text-anchor="middle" fill="white" font-size="15" font-weight="700">E</text>
  <text x="615" y="90" text-anchor="middle" fill="white" font-size="12" font-weight="500">Emergency</text>
  <text x="615" y="108" text-anchor="middle" fill="#FFCDD2" font-size="10">Circuit breaker</text>
  <text x="615" y="118" text-anchor="middle" fill="#FFCDD2" font-size="10">AI removed</text>

  <!-- Bottom descriptive row -->
  <rect x="20" y="146" width="150" height="42" rx="6" fill="#E8F5E9"/>
  <text x="95" y="164" text-anchor="middle" fill="#1B5E20" font-size="10" font-weight="500">Full autonomy</text>
  <text x="95" y="178" text-anchor="middle" fill="#2E7D32" font-size="9">Normal operations</text>

  <rect x="196" y="146" width="150" height="42" rx="6" fill="#FFF8E1"/>
  <text x="271" y="164" text-anchor="middle" fill="#E65100" font-size="10" font-weight="500">Backup activated</text>
  <text x="271" y="178" text-anchor="middle" fill="#F57F17" font-size="9">Narrower capability</text>

  <rect x="372" y="146" width="150" height="42" rx="6" fill="#FBE9E7"/>
  <text x="447" y="164" text-anchor="middle" fill="#BF360C" font-size="10" font-weight="500">Supervised only</text>
  <text x="447" y="178" text-anchor="middle" fill="#E65100" font-size="9">Humans in the loop</text>

  <rect x="548" y="146" width="134" height="42" rx="6" fill="#FFEBEE"/>
  <text x="615" y="164" text-anchor="middle" fill="#B71C1C" font-size="10" font-weight="500">Full stop</text>
  <text x="615" y="178" text-anchor="middle" fill="#C62828" font-size="9">Non-AI fallback</text>

  <!-- Bottom caption -->
  <text x="350" y="218" text-anchor="middle" fill="#546E7A" font-size="11">Every tier has a plan. Every plan is defined before the incident, not during it.</text>
</svg>
