<svg xmlns="http://www.w3.org/2000/svg" viewBox="0 0 1100 790" font-family="'Segoe UI', 'Helvetica Neue', Arial, sans-serif">
  <defs>
    <linearGradient id="bg" x1="0%" y1="0%" x2="100%" y2="100%">
      <stop offset="0%" stop-color="#0a0e1a"/>
      <stop offset="100%" stop-color="#1a1e3a"/>
    </linearGradient>
  </defs>
  <rect width="1100" height="790" fill="url(#bg)"/>

  <text x="550" y="30" text-anchor="middle" fill="#fff" font-size="15" font-weight="700" letter-spacing="1">TIER 1 — OWASP RISK COVERAGE</text>
  <text x="550" y="46" text-anchor="middle" fill="#ff6b35" font-size="9" letter-spacing="1">SUPERVISED MULTI-AGENT · HUMAN-IN-THE-LOOP COMPENSATING CONTROL</text>

  <circle cx="320" cy="62" r="5" fill="#92fe9d"/>
  <text x="330" y="66" fill="#8899aa" font-size="9">Covered</text>
  <circle cx="420" cy="62" r="5" fill="#ffd700"/>
  <text x="430" y="66" fill="#8899aa" font-size="9">Partial</text>
  <circle cx="510" cy="62" r="5" fill="#f5576c"/>
  <text x="520" y="66" fill="#8899aa" font-size="9">Minimal</text>

  <rect x="30" y="78" width="1040" height="28" rx="4" fill="#151a30"/>
  <text x="50" y="97" fill="#fff" font-size="10" font-weight="700">RISK</text>
  <text x="370" y="97" fill="#fff" font-size="10" font-weight="700">STATUS</text>
  <text x="470" y="97" fill="#fff" font-size="10" font-weight="700">PRIMARY CONTROL</text>

  <rect x="30" y="106" width="1040" height="20" rx="0" fill="#0d1528"/>
  <text x="50" y="120" fill="#00c9ff" font-size="9" font-weight="700" letter-spacing="1">OWASP TOP 10 FOR LLM APPLICATIONS (2025)</text>
  <rect x="30" y="126" width="1040" height="28" rx="0" fill="#0a0e1a"/>
  <text x="50" y="144" fill="#00c9ff" font-size="9" font-weight="600">LLM01</text>
  <circle cx="380" cy="140" r="5" fill="#ffd700"/>
  <text x="395" y="144" fill="#ffd700" font-size="9">Partial</text>
  <text x="470" y="144" fill="#c0c8d8" font-size="8">PG-1.1 Input guardrails per agent · PG-1.4 Message source tagging · Human review</text>
  <rect x="30" y="154" width="1040" height="28" rx="0" fill="#0f1325"/>
  <text x="50" y="172" fill="#00c9ff" font-size="9" font-weight="600">LLM02</text>
  <circle cx="380" cy="168" r="5" fill="#ffd700"/>
  <text x="395" y="172" fill="#ffd700" font-size="9">Partial</text>
  <text x="470" y="172" fill="#c0c8d8" font-size="8">DP-1.1 Data classification · DP-1.2 Logical separation · Human review</text>
  <rect x="30" y="182" width="1040" height="28" rx="0" fill="#0a0e1a"/>
  <text x="50" y="200" fill="#00c9ff" font-size="9" font-weight="600">LLM03</text>
  <circle cx="380" cy="196" r="5" fill="#ffd700"/>
  <text x="395" y="200" fill="#ffd700" font-size="9">Partial</text>
  <text x="470" y="200" fill="#c0c8d8" font-size="8">SC-1.1/1.2 Model+tool inventory · SC-1.3 Fixed toolsets</text>
  <rect x="30" y="210" width="1040" height="28" rx="0" fill="#0f1325"/>
  <text x="50" y="228" fill="#00c9ff" font-size="9" font-weight="600">LLM04</text>
  <circle cx="380" cy="224" r="5" fill="#ffd700"/>
  <text x="395" y="228" fill="#ffd700" font-size="9">Partial</text>
  <text x="470" y="228" fill="#c0c8d8" font-size="8">DP-1.4 RAG source inventory · No integrity validation yet</text>
  <rect x="30" y="238" width="1040" height="28" rx="0" fill="#0a0e1a"/>
  <text x="50" y="256" fill="#00c9ff" font-size="9" font-weight="600">LLM05</text>
  <circle cx="380" cy="252" r="5" fill="#ffd700"/>
  <text x="395" y="256" fill="#ffd700" font-size="9">Partial</text>
  <text x="470" y="256" fill="#c0c8d8" font-size="8">EC-1.1 Human approval gate · Output logging</text>
  <rect x="30" y="266" width="1040" height="28" rx="0" fill="#0f1325"/>
  <text x="50" y="284" fill="#00c9ff" font-size="9" font-weight="600">LLM06</text>
  <circle cx="380" cy="280" r="5" fill="#92fe9d"/>
  <text x="395" y="284" fill="#92fe9d" font-size="9">Covered</text>
  <text x="470" y="284" fill="#c0c8d8" font-size="8">IA-1.4 Scoped permissions · EC-1.2 Tool allow-lists</text>
  <rect x="30" y="294" width="1040" height="28" rx="0" fill="#0a0e1a"/>
  <text x="50" y="312" fill="#00c9ff" font-size="9" font-weight="600">LLM07</text>
  <circle cx="380" cy="308" r="5" fill="#ffd700"/>
  <text x="395" y="312" fill="#ffd700" font-size="9">Partial</text>
  <text x="470" y="312" fill="#c0c8d8" font-size="8">PG-1.2 System prompt isolation per agent</text>
  <rect x="30" y="322" width="1040" height="28" rx="0" fill="#0f1325"/>
  <text x="50" y="340" fill="#00c9ff" font-size="9" font-weight="600">LLM08</text>
  <circle cx="380" cy="336" r="5" fill="#f5576c"/>
  <text x="395" y="340" fill="#f5576c" font-size="9">Minimal</text>
  <text x="470" y="340" fill="#c0c8d8" font-size="8">DP-1.4 RAG inventory only · No integrity checks</text>
  <rect x="30" y="350" width="1040" height="28" rx="0" fill="#0a0e1a"/>
  <text x="50" y="368" fill="#00c9ff" font-size="9" font-weight="600">LLM09</text>
  <circle cx="380" cy="364" r="5" fill="#ffd700"/>
  <text x="395" y="368" fill="#ffd700" font-size="9">Partial</text>
  <text x="470" y="368" fill="#c0c8d8" font-size="8">OB-1.3 Weekly manual review · PG-1.4 Message type tagging</text>
  <rect x="30" y="378" width="1040" height="28" rx="0" fill="#0f1325"/>
  <text x="50" y="396" fill="#00c9ff" font-size="9" font-weight="600">LLM10</text>
  <circle cx="380" cy="392" r="5" fill="#92fe9d"/>
  <text x="395" y="396" fill="#92fe9d" font-size="9">Covered</text>
  <text x="470" y="396" fill="#c0c8d8" font-size="8">EC-1.3 Per-agent rate limits · EC-1.5 Interaction timeout</text>
  <rect x="30" y="410" width="1040" height="20" rx="0" fill="#0d1528"/>
  <text x="50" y="424" fill="#ff6b35" font-size="9" font-weight="700" letter-spacing="1">OWASP TOP 10 FOR AGENTIC APPLICATIONS (2026)</text>
  <rect x="30" y="430" width="1040" height="28" rx="0" fill="#0a0e1a"/>
  <text x="50" y="448" fill="#ff6b35" font-size="9" font-weight="600">ASI01</text>
  <circle cx="380" cy="444" r="5" fill="#ffd700"/>
  <text x="395" y="448" fill="#ffd700" font-size="9">Partial</text>
  <text x="470" y="448" fill="#c0c8d8" font-size="8">PG-1.3 Immutable task spec · PG-1.4 Source tagging · Human approval gate</text>
  <rect x="30" y="458" width="1040" height="28" rx="0" fill="#0f1325"/>
  <text x="50" y="476" fill="#ff6b35" font-size="9" font-weight="600">ASI02</text>
  <circle cx="380" cy="472" r="5" fill="#92fe9d"/>
  <text x="395" y="476" fill="#92fe9d" font-size="9">Covered</text>
  <text x="470" y="476" fill="#c0c8d8" font-size="8">EC-1.1 Human approval for all writes · EC-1.2 Tool allow-lists</text>
  <rect x="30" y="486" width="1040" height="28" rx="0" fill="#0a0e1a"/>
  <text x="50" y="504" fill="#ff6b35" font-size="9" font-weight="600">ASI03</text>
  <circle cx="380" cy="500" r="5" fill="#ffd700"/>
  <text x="395" y="504" fill="#ffd700" font-size="9">Partial</text>
  <text x="470" y="504" fill="#c0c8d8" font-size="8">IA-1.2 No shared credentials · IA-1.3 No orchestrator inheritance</text>
  <rect x="30" y="514" width="1040" height="28" rx="0" fill="#0f1325"/>
  <text x="50" y="532" fill="#ff6b35" font-size="9" font-weight="600">ASI04</text>
  <circle cx="380" cy="528" r="5" fill="#ffd700"/>
  <text x="395" y="532" fill="#ffd700" font-size="9">Partial</text>
  <text x="470" y="532" fill="#c0c8d8" font-size="8">SC-1.3 Fixed toolsets · No signing infrastructure</text>
  <rect x="30" y="542" width="1040" height="28" rx="0" fill="#0a0e1a"/>
  <text x="50" y="560" fill="#ff6b35" font-size="9" font-weight="600">ASI05</text>
  <circle cx="380" cy="556" r="5" fill="#f5576c"/>
  <text x="395" y="560" fill="#f5576c" font-size="9">Minimal</text>
  <text x="470" y="560" fill="#c0c8d8" font-size="8">EC-1.1 Human approval gate · No sandbox</text>
  <rect x="30" y="570" width="1040" height="28" rx="0" fill="#0f1325"/>
  <text x="50" y="588" fill="#ff6b35" font-size="9" font-weight="600">ASI06</text>
  <circle cx="380" cy="584" r="5" fill="#ffd700"/>
  <text x="395" y="588" fill="#ffd700" font-size="9">Partial</text>
  <text x="470" y="588" fill="#c0c8d8" font-size="8">DP-1.2 Logical separation · No infrastructure fencing</text>
  <rect x="30" y="598" width="1040" height="28" rx="0" fill="#0a0e1a"/>
  <text x="50" y="616" fill="#ff6b35" font-size="9" font-weight="600">ASI07</text>
  <circle cx="380" cy="612" r="5" fill="#f5576c"/>
  <text x="395" y="616" fill="#f5576c" font-size="9">Minimal</text>
  <text x="470" y="616" fill="#c0c8d8" font-size="8">OB-1.2 Message logging · No authentication or encryption</text>
  <rect x="30" y="626" width="1040" height="28" rx="0" fill="#0f1325"/>
  <text x="50" y="644" fill="#ff6b35" font-size="9" font-weight="600">ASI08</text>
  <circle cx="380" cy="640" r="5" fill="#ffd700"/>
  <text x="395" y="644" fill="#ffd700" font-size="9">Partial</text>
  <text x="470" y="644" fill="#c0c8d8" font-size="8">EC-1.3 Rate limits · EC-1.5 Interaction timeout · Manual review</text>
  <rect x="30" y="654" width="1040" height="28" rx="0" fill="#0a0e1a"/>
  <text x="50" y="672" fill="#ff6b35" font-size="9" font-weight="600">ASI09</text>
  <circle cx="380" cy="668" r="5" fill="#92fe9d"/>
  <text x="395" y="672" fill="#92fe9d" font-size="9">Covered</text>
  <text x="470" y="672" fill="#c0c8d8" font-size="8">EC-1.1 Human-in-the-loop for all actions · PG-1.5 Anti-manipulation guardrail</text>
  <rect x="30" y="682" width="1040" height="28" rx="0" fill="#0f1325"/>
  <text x="50" y="700" fill="#ff6b35" font-size="9" font-weight="600">ASI10</text>
  <circle cx="380" cy="696" r="5" fill="#f5576c"/>
  <text x="395" y="700" fill="#f5576c" font-size="9">Minimal</text>
  <text x="470" y="700" fill="#c0c8d8" font-size="8">OB-1.3 Weekly manual review · No automated drift detection</text>
</svg>