<svg xmlns="http://www.w3.org/2000/svg" viewBox="0 0 900 520" font-family="'Segoe UI', system-ui, -apple-system, sans-serif">
  <defs>
    <filter id="shadow" x="-4%" y="-4%" width="108%" height="112%">
      <feDropShadow dx="0" dy="2" stdDeviation="3" flood-color="#00000018"/>
    </filter>
    <linearGradient id="headerGrad" x1="0" y1="0" x2="900" y2="0" gradientUnits="userSpaceOnUse">
      <stop offset="0%" stop-color="#3F51B5"/>
      <stop offset="100%" stop-color="#1A237E"/>
    </linearGradient>
    <linearGradient id="centerGrad" x1="0" y1="0" x2="1" y2="1">
      <stop offset="0%" stop-color="#E8EAF6"/>
      <stop offset="100%" stop-color="#C5CAE9"/>
    </linearGradient>
  </defs>

  <!-- Background -->
  <rect width="900" height="520" rx="12" fill="#FAFAFA"/>

  <!-- Header -->
  <rect width="900" height="56" rx="12" fill="url(#headerGrad)"/>
  <rect y="44" width="900" height="12" fill="url(#headerGrad)"/>
  <text x="450" y="36" text-anchor="middle" fill="white" font-size="18" font-weight="600">Stakeholder Views - Your Entry Point into the Framework</text>

  <!-- Center hub -->
  <ellipse cx="450" cy="280" rx="110" ry="48" fill="url(#centerGrad)" stroke="#3F51B5" stroke-width="2" filter="url(#shadow)"/>
  <text x="450" y="274" text-anchor="middle" fill="#1A237E" font-size="13" font-weight="600">AI Runtime</text>
  <text x="450" y="292" text-anchor="middle" fill="#1A237E" font-size="13" font-weight="600">Behavior Security</text>

  <!-- Connection lines -->
  <line x1="340" y1="260" x2="200" y2="175" stroke="#9FA8DA" stroke-width="2" stroke-dasharray="6,3"/>
  <line x1="560" y1="260" x2="700" y2="175" stroke="#9FA8DA" stroke-width="2" stroke-dasharray="6,3"/>
  <line x1="340" y1="300" x2="200" y2="385" stroke="#9FA8DA" stroke-width="2" stroke-dasharray="6,3"/>
  <line x1="560" y1="300" x2="700" y2="385" stroke="#9FA8DA" stroke-width="2" stroke-dasharray="6,3"/>
  <line x1="450" y1="232" x2="450" y2="130" stroke="#9FA8DA" stroke-width="2" stroke-dasharray="6,3"/>
  <line x1="450" y1="328" x2="450" y2="430" stroke="#9FA8DA" stroke-width="2" stroke-dasharray="6,3"/>

  <!-- Security Leaders (top-left) -->
  <g filter="url(#shadow)">
    <rect x="50" y="100" width="220" height="100" rx="10" fill="white" stroke="#E53935" stroke-width="2"/>
    <rect x="50" y="100" width="220" height="32" rx="10" fill="#E53935"/>
    <rect x="50" y="122" width="220" height="10" fill="#E53935"/>
    <text x="160" y="122" text-anchor="middle" fill="white" font-size="13" font-weight="600">Security Leaders</text>
    <text x="160" y="152" text-anchor="middle" fill="#424242" font-size="11">Risk Tiers · Controls · PACE</text>
    <text x="160" y="168" text-anchor="middle" fill="#424242" font-size="11">Red Team · OWASP Mapping</text>
    <text x="160" y="188" text-anchor="middle" fill="#757575" font-size="10" font-style="italic">"How do I secure this?"</text>
  </g>

  <!-- Risk & Governance (top-center) -->
  <g filter="url(#shadow)">
    <rect x="340" y="76" width="220" height="100" rx="10" fill="white" stroke="#FF6F00" stroke-width="2"/>
    <rect x="340" y="76" width="220" height="32" rx="10" fill="#FF6F00"/>
    <rect x="340" y="98" width="220" height="10" fill="#FF6F00"/>
    <text x="450" y="98" text-anchor="middle" fill="white" font-size="13" font-weight="600">Risk &amp; Governance</text>
    <text x="450" y="128" text-anchor="middle" fill="#424242" font-size="11">Risk Assessment · NIST RMF</text>
    <text x="450" y="144" text-anchor="middle" fill="#424242" font-size="11">Quantified Residual Risk</text>
    <text x="450" y="164" text-anchor="middle" fill="#757575" font-size="10" font-style="italic">"How much risk do we have?"</text>
  </g>

  <!-- Enterprise Architects (top-right) -->
  <g filter="url(#shadow)">
    <rect x="630" y="100" width="220" height="100" rx="10" fill="white" stroke="#1565C0" stroke-width="2"/>
    <rect x="630" y="100" width="220" height="32" rx="10" fill="#1565C0"/>
    <rect x="630" y="122" width="220" height="10" fill="#1565C0"/>
    <text x="740" y="122" text-anchor="middle" fill="white" font-size="13" font-weight="600">Enterprise Architects</text>
    <text x="740" y="152" text-anchor="middle" fill="#424242" font-size="11">Pipeline Placement · Infra</text>
    <text x="740" y="168" text-anchor="middle" fill="#424242" font-size="11">Cost/Latency · Platform Patterns</text>
    <text x="740" y="188" text-anchor="middle" fill="#757575" font-size="10" font-style="italic">"Where do controls go?"</text>
  </g>

  <!-- Product Owners (bottom-left) -->
  <g filter="url(#shadow)">
    <rect x="50" y="360" width="220" height="100" rx="10" fill="white" stroke="#2E7D32" stroke-width="2"/>
    <rect x="50" y="360" width="220" height="32" rx="10" fill="#2E7D32"/>
    <rect x="50" y="382" width="220" height="10" fill="#2E7D32"/>
    <text x="160" y="382" text-anchor="middle" fill="white" font-size="13" font-weight="600">Product Owners</text>
    <text x="160" y="412" text-anchor="middle" fill="#424242" font-size="11">Fast Lane · Tier Classification</text>
    <text x="160" y="428" text-anchor="middle" fill="#424242" font-size="11">Use Case Definition · Checklist</text>
    <text x="160" y="448" text-anchor="middle" fill="#757575" font-size="10" font-style="italic">"How do I ship this safely?"</text>
  </g>

  <!-- AI Engineers (bottom-center) -->
  <g filter="url(#shadow)">
    <rect x="340" y="384" width="220" height="100" rx="10" fill="white" stroke="#6A1B9A" stroke-width="2"/>
    <rect x="340" y="384" width="220" height="32" rx="10" fill="#6A1B9A"/>
    <rect x="340" y="406" width="220" height="10" fill="#6A1B9A"/>
    <text x="450" y="406" text-anchor="middle" fill="white" font-size="13" font-weight="600">AI Engineers</text>
    <text x="450" y="436" text-anchor="middle" fill="#424242" font-size="11">Implementation Patterns</text>
    <text x="450" y="452" text-anchor="middle" fill="#424242" font-size="11">Judge · Guardrails · Testing</text>
    <text x="450" y="472" text-anchor="middle" fill="#757575" font-size="10" font-style="italic">"What do I build?"</text>
  </g>

  <!-- Compliance & Legal (bottom-right) -->
  <g filter="url(#shadow)">
    <rect x="630" y="360" width="220" height="100" rx="10" fill="white" stroke="#00695C" stroke-width="2"/>
    <rect x="630" y="360" width="220" height="32" rx="10" fill="#00695C"/>
    <rect x="630" y="382" width="220" height="10" fill="#00695C"/>
    <text x="740" y="382" text-anchor="middle" fill="white" font-size="13" font-weight="600">Compliance &amp; Legal</text>
    <text x="740" y="412" text-anchor="middle" fill="#424242" font-size="11">EU AI Act · ISO 42001 · NIST</text>
    <text x="740" y="428" text-anchor="middle" fill="#424242" font-size="11">Regulatory Crosswalks · Evidence</text>
    <text x="740" y="448" text-anchor="middle" fill="#757575" font-size="10" font-style="italic">"How do we prove compliance?"</text>
  </g>
</svg>
